G04*
G04 #@! TF.GenerationSoftware,Altium Limited,Altium Designer,19.1.9 (167)*
G04*
G04 Layer_Physical_Order=1*
G04 Layer_Color=255*
%FSLAX25Y25*%
%MOIN*%
G70*
G01*
G75*
G04:AMPARAMS|DCode=17|XSize=23.62mil|YSize=9.45mil|CornerRadius=1.89mil|HoleSize=0mil|Usage=FLASHONLY|Rotation=0.000|XOffset=0mil|YOffset=0mil|HoleType=Round|Shape=RoundedRectangle|*
%AMROUNDEDRECTD17*
21,1,0.02362,0.00567,0,0,0.0*
21,1,0.01984,0.00945,0,0,0.0*
1,1,0.00378,0.00992,-0.00284*
1,1,0.00378,-0.00992,-0.00284*
1,1,0.00378,-0.00992,0.00284*
1,1,0.00378,0.00992,0.00284*
%
%ADD17ROUNDEDRECTD17*%
G04:AMPARAMS|DCode=18|XSize=23.62mil|YSize=9.45mil|CornerRadius=1.89mil|HoleSize=0mil|Usage=FLASHONLY|Rotation=270.000|XOffset=0mil|YOffset=0mil|HoleType=Round|Shape=RoundedRectangle|*
%AMROUNDEDRECTD18*
21,1,0.02362,0.00567,0,0,270.0*
21,1,0.01984,0.00945,0,0,270.0*
1,1,0.00378,-0.00284,-0.00992*
1,1,0.00378,-0.00284,0.00992*
1,1,0.00378,0.00284,0.00992*
1,1,0.00378,0.00284,-0.00992*
%
%ADD18ROUNDEDRECTD18*%
%ADD19R,0.00787X0.00787*%
%ADD20R,0.02165X0.02165*%
%ADD21R,0.02362X0.02126*%
%ADD22C,0.00800*%
%ADD23C,0.06000*%
%ADD24C,0.01181*%
%ADD25C,0.07000*%
%ADD26C,0.02500*%
G36*
X17352Y28844D02*
X17376Y28842D01*
X17401Y28839D01*
X17425Y28835D01*
X17449Y28829D01*
X17473Y28822D01*
X17496Y28813D01*
X17519Y28804D01*
X17541Y28793D01*
X17563Y28782D01*
X17584Y28769D01*
X17605Y28755D01*
X17624Y28740D01*
X17643Y28723D01*
X17661Y28706D01*
X17678Y28688D01*
X17694Y28670D01*
X17709Y28650D01*
X17723Y28630D01*
X17736Y28609D01*
X17748Y28587D01*
X17758Y28565D01*
X17768Y28542D01*
X17776Y28518D01*
X17783Y28495D01*
X17789Y28471D01*
X17793Y28446D01*
X17797Y28422D01*
X17799Y28397D01*
X17799Y28372D01*
Y25203D01*
X19886D01*
X19911Y25203D01*
X19935Y25201D01*
X19960Y25197D01*
X19984Y25193D01*
X20008Y25187D01*
X20032Y25180D01*
X20055Y25172D01*
X20078Y25162D01*
X20100Y25152D01*
X20122Y25140D01*
X20143Y25127D01*
X20164Y25113D01*
X20183Y25098D01*
X20202Y25082D01*
X20220Y25065D01*
X20237Y25047D01*
X20253Y25028D01*
X20268Y25008D01*
X20282Y24988D01*
X20295Y24967D01*
X20307Y24945D01*
X20317Y24923D01*
X20327Y24900D01*
X20335Y24877D01*
X20342Y24853D01*
X20348Y24829D01*
X20352Y24805D01*
X20356Y24780D01*
X20358Y24755D01*
X20358Y24731D01*
Y13116D01*
X20358Y13092D01*
X20356Y13067D01*
X20352Y13043D01*
X20348Y13018D01*
X20342Y12994D01*
X20335Y12970D01*
X20327Y12947D01*
X20317Y12924D01*
X20307Y12902D01*
X20295Y12880D01*
X20282Y12859D01*
X20268Y12839D01*
X20253Y12819D01*
X20237Y12800D01*
X20220Y12783D01*
X20202Y12765D01*
X20183Y12749D01*
X20164Y12734D01*
X20143Y12720D01*
X20122Y12707D01*
X20100Y12696D01*
X20078Y12685D01*
X20055Y12675D01*
X20032Y12667D01*
X20008Y12660D01*
X19984Y12654D01*
X19960Y12650D01*
X19935Y12647D01*
X19911Y12645D01*
X19886Y12644D01*
X17799D01*
Y9475D01*
X17799Y9450D01*
X17797Y9425D01*
X17793Y9401D01*
X17789Y9377D01*
X17783Y9352D01*
X17776Y9329D01*
X17768Y9306D01*
X17758Y9283D01*
X17748Y9260D01*
X17736Y9239D01*
X17723Y9217D01*
X17709Y9197D01*
X17694Y9178D01*
X17678Y9159D01*
X17661Y9141D01*
X17643Y9124D01*
X17624Y9108D01*
X17605Y9093D01*
X17584Y9079D01*
X17563Y9066D01*
X17541Y9054D01*
X17519Y9043D01*
X17496Y9034D01*
X17473Y9025D01*
X17449Y9018D01*
X17425Y9013D01*
X17401Y9008D01*
X17376Y9005D01*
X17352Y9003D01*
X17327Y9002D01*
X16933D01*
X16908Y9003D01*
X16884Y9005D01*
X16859Y9008D01*
X16835Y9013D01*
X16811Y9018D01*
X16787Y9025D01*
X16764Y9034D01*
X16741Y9043D01*
X16719Y9054D01*
X16697Y9066D01*
X16676Y9079D01*
X16655Y9093D01*
X16636Y9108D01*
X16617Y9124D01*
X16599Y9141D01*
X16582Y9159D01*
X16566Y9178D01*
X16551Y9197D01*
X16537Y9217D01*
X16524Y9239D01*
X16512Y9260D01*
X16501Y9283D01*
X16492Y9306D01*
X16484Y9329D01*
X16477Y9352D01*
X16471Y9377D01*
X16466Y9401D01*
X16463Y9425D01*
X16461Y9450D01*
X16461Y9475D01*
Y11069D01*
X15634D01*
Y9475D01*
X15633Y9450D01*
X15631Y9425D01*
X15628Y9401D01*
X15623Y9377D01*
X15618Y9352D01*
X15611Y9329D01*
X15603Y9306D01*
X15593Y9283D01*
X15582Y9260D01*
X15571Y9239D01*
X15558Y9217D01*
X15544Y9197D01*
X15529Y9178D01*
X15513Y9159D01*
X15495Y9141D01*
X15477Y9124D01*
X15459Y9108D01*
X15439Y9093D01*
X15419Y9079D01*
X15398Y9066D01*
X15376Y9054D01*
X15354Y9043D01*
X15331Y9034D01*
X15307Y9025D01*
X15284Y9018D01*
X15260Y9013D01*
X15235Y9008D01*
X15211Y9005D01*
X15186Y9003D01*
X15161Y9002D01*
X14768D01*
X14743Y9003D01*
X14718Y9005D01*
X14694Y9008D01*
X14670Y9013D01*
X14645Y9018D01*
X14622Y9025D01*
X14598Y9034D01*
X14576Y9043D01*
X14553Y9054D01*
X14532Y9066D01*
X14510Y9079D01*
X14490Y9093D01*
X14470Y9108D01*
X14452Y9124D01*
X14434Y9141D01*
X14417Y9159D01*
X14401Y9178D01*
X14386Y9197D01*
X14371Y9217D01*
X14359Y9239D01*
X14347Y9260D01*
X14336Y9283D01*
X14327Y9306D01*
X14318Y9329D01*
X14311Y9352D01*
X14306Y9377D01*
X14301Y9401D01*
X14298Y9425D01*
X14296Y9450D01*
X14295Y9475D01*
Y12644D01*
X12209D01*
X12184Y12645D01*
X12159Y12647D01*
X12135Y12650D01*
X12110Y12654D01*
X12086Y12660D01*
X12063Y12667D01*
X12039Y12675D01*
X12016Y12685D01*
X11994Y12696D01*
X11972Y12707D01*
X11951Y12720D01*
X11931Y12734D01*
X11911Y12749D01*
X11892Y12765D01*
X11875Y12783D01*
X11858Y12800D01*
X11841Y12819D01*
X11826Y12839D01*
X11812Y12859D01*
X11800Y12880D01*
X11788Y12902D01*
X11777Y12924D01*
X11768Y12947D01*
X11759Y12970D01*
X11752Y12994D01*
X11746Y13018D01*
X11742Y13043D01*
X11739Y13067D01*
X11737Y13092D01*
X11736Y13116D01*
Y24731D01*
X11737Y24755D01*
X11739Y24780D01*
X11742Y24805D01*
X11746Y24829D01*
X11752Y24853D01*
X11759Y24877D01*
X11768Y24900D01*
X11777Y24923D01*
X11788Y24945D01*
X11800Y24967D01*
X11812Y24988D01*
X11826Y25008D01*
X11841Y25028D01*
X11858Y25047D01*
X11875Y25065D01*
X11892Y25082D01*
X11911Y25098D01*
X11931Y25113D01*
X11951Y25127D01*
X11972Y25140D01*
X11994Y25152D01*
X12016Y25162D01*
X12039Y25172D01*
X12063Y25180D01*
X12086Y25187D01*
X12110Y25193D01*
X12135Y25197D01*
X12159Y25201D01*
X12184Y25203D01*
X12209Y25203D01*
X14295D01*
Y28372D01*
X14296Y28397D01*
X14298Y28422D01*
X14301Y28446D01*
X14306Y28471D01*
X14311Y28495D01*
X14318Y28518D01*
X14327Y28542D01*
X14336Y28565D01*
X14347Y28587D01*
X14359Y28609D01*
X14371Y28630D01*
X14386Y28650D01*
X14401Y28670D01*
X14417Y28688D01*
X14434Y28706D01*
X14452Y28723D01*
X14470Y28740D01*
X14490Y28755D01*
X14510Y28769D01*
X14532Y28782D01*
X14553Y28793D01*
X14576Y28804D01*
X14598Y28813D01*
X14622Y28822D01*
X14645Y28829D01*
X14670Y28835D01*
X14694Y28839D01*
X14718Y28842D01*
X14743Y28844D01*
X14768Y28845D01*
X15161D01*
X15186Y28844D01*
X15211Y28842D01*
X15235Y28839D01*
X15260Y28835D01*
X15284Y28829D01*
X15307Y28822D01*
X15331Y28813D01*
X15354Y28804D01*
X15376Y28793D01*
X15398Y28782D01*
X15419Y28769D01*
X15439Y28755D01*
X15459Y28740D01*
X15477Y28723D01*
X15495Y28706D01*
X15513Y28688D01*
X15529Y28670D01*
X15544Y28650D01*
X15558Y28630D01*
X15571Y28609D01*
X15582Y28587D01*
X15593Y28565D01*
X15603Y28542D01*
X15611Y28518D01*
X15618Y28495D01*
X15623Y28471D01*
X15628Y28446D01*
X15631Y28422D01*
X15633Y28397D01*
X15634Y28372D01*
Y26778D01*
X16461D01*
Y28372D01*
X16461Y28397D01*
X16463Y28422D01*
X16466Y28446D01*
X16471Y28471D01*
X16477Y28495D01*
X16484Y28518D01*
X16492Y28542D01*
X16501Y28565D01*
X16512Y28587D01*
X16524Y28609D01*
X16537Y28630D01*
X16551Y28650D01*
X16566Y28670D01*
X16582Y28688D01*
X16599Y28706D01*
X16617Y28723D01*
X16636Y28740D01*
X16655Y28755D01*
X16676Y28769D01*
X16697Y28782D01*
X16719Y28793D01*
X16741Y28804D01*
X16764Y28813D01*
X16787Y28822D01*
X16811Y28829D01*
X16835Y28835D01*
X16859Y28839D01*
X16884Y28842D01*
X16908Y28844D01*
X16933Y28845D01*
X17327D01*
X17352Y28844D01*
D02*
G37*
D17*
X22543Y25813D02*
D03*
Y12034D02*
D03*
Y23845D02*
D03*
Y21876D02*
D03*
Y19908D02*
D03*
Y17939D02*
D03*
Y15971D02*
D03*
Y14002D02*
D03*
X9551Y25813D02*
D03*
Y12034D02*
D03*
Y23845D02*
D03*
Y21876D02*
D03*
Y19908D02*
D03*
Y17939D02*
D03*
Y15971D02*
D03*
Y14002D02*
D03*
D18*
X19000Y27388D02*
D03*
X13094D02*
D03*
X19000Y10459D02*
D03*
X13094D02*
D03*
D19*
X16047Y18924D02*
D03*
D20*
X12400Y4000D02*
D03*
X17000D02*
D03*
X21700D02*
D03*
X26300D02*
D03*
X8000D02*
D03*
X3400D02*
D03*
D21*
X14000Y35193D02*
D03*
Y31807D02*
D03*
X8500Y35193D02*
D03*
Y31807D02*
D03*
X2140Y31386D02*
D03*
Y28000D02*
D03*
X28500Y27693D02*
D03*
Y24307D02*
D03*
X19500Y31807D02*
D03*
Y35193D02*
D03*
X25000Y31807D02*
D03*
Y35193D02*
D03*
X2140Y20500D02*
D03*
Y23886D02*
D03*
Y16386D02*
D03*
Y13000D02*
D03*
D22*
X28000Y37500D02*
Y47000D01*
X20250Y41750D02*
X21000Y42500D01*
X11157Y41168D02*
Y42500D01*
X27500Y38000D02*
X28000Y37500D01*
X20250Y35856D02*
Y41750D01*
X19000Y26680D02*
Y27388D01*
X16337Y24016D02*
X19000Y26680D01*
X16047Y23943D02*
X16120Y24016D01*
X13094Y26680D02*
Y27388D01*
X26821Y19281D02*
X27281D01*
X22543Y14002D02*
X25498D01*
X14565Y25209D02*
X14781D01*
X6500Y20000D02*
X7500D01*
X17313Y12638D02*
X17530D01*
X9479Y17867D02*
X9551Y17939D01*
X25498Y14002D02*
X26500Y13000D01*
X9551Y15971D02*
X12007D01*
X25144Y26722D02*
X25469Y27047D01*
X22543Y19908D02*
X26195D01*
X19000Y10459D02*
Y11168D01*
X7520Y19980D02*
X9479D01*
X26195Y19908D02*
X26821Y19281D01*
X17530Y12638D02*
X19000Y11168D01*
X13094Y26680D02*
X14565Y25209D01*
X6250Y16500D02*
X6500D01*
X7500Y20000D02*
X7520Y19980D01*
X22543Y23845D02*
X23252D01*
X22543Y21876D02*
X22616Y21804D01*
X13094Y10459D02*
Y11168D01*
X7867Y17867D02*
X9479D01*
X12007Y15971D02*
X12893Y16857D01*
X23252Y23845D02*
X23748Y24341D01*
X22616Y21804D02*
X24773D01*
X14781Y12638D02*
X16047Y13904D01*
X6500Y16500D02*
X7867Y17867D01*
X12893Y16857D02*
X12996D01*
X23748Y24341D02*
X24028D01*
X24773Y21804D02*
X25469Y22500D01*
X13094Y11168D02*
X14565Y12638D01*
X9551Y12034D02*
X12228D01*
X16120Y24016D02*
X16337D01*
X24028Y24341D02*
X25144Y25457D01*
X12228Y12034D02*
X13094Y11168D01*
X14565Y12638D02*
X14781D01*
X25144Y25457D02*
Y26722D01*
X16047Y13904D02*
X17313Y12638D01*
X9479Y19980D02*
X9551Y19908D01*
X14781Y25209D02*
X16047Y23943D01*
X6500Y8500D02*
Y12298D01*
X2412Y16386D02*
X6500Y12298D01*
X2140Y16386D02*
X2412D01*
X3070Y9430D02*
X3235Y9265D01*
Y4165D02*
Y9265D01*
Y4165D02*
X3400Y4000D01*
X2745Y9755D02*
X3070Y9430D01*
X2745Y9755D02*
Y12395D01*
X2140Y13000D02*
X2745Y12395D01*
X8843Y21876D02*
X9551D01*
X8469Y22250D02*
X8843Y21876D01*
X5568Y22250D02*
X8469D01*
X4481Y21163D02*
X5568Y22250D01*
X2803Y21163D02*
X4481D01*
X2140Y20500D02*
X2803Y21163D01*
X7370Y25037D02*
Y27531D01*
X3754Y25500D02*
X5000D01*
X8045Y24363D02*
Y24363D01*
X7370Y25037D02*
X8045Y24363D01*
X8045Y24363D02*
X8563Y23845D01*
X8045Y24363D02*
X8045D01*
X6901Y28000D02*
X7370Y27531D01*
X8563Y23845D02*
X9551D01*
X2140Y28000D02*
X6901D01*
X25500Y8500D02*
X29000Y12000D01*
X23000Y8500D02*
X25500D01*
X21700Y7200D02*
X23000Y8500D01*
X21700Y4000D02*
Y7200D01*
X29000Y12000D02*
Y14500D01*
X25769Y15631D02*
X27869D01*
X25430Y15971D02*
X25769Y15631D01*
X26349Y17031D02*
X28213D01*
X25441Y17939D02*
X26349Y17031D01*
X22543Y15971D02*
X25430D01*
X27869Y15631D02*
X29000Y14500D01*
X28213Y17031D02*
X29531Y18349D01*
X28000Y7040D02*
Y7500D01*
X26983Y6023D02*
X28000Y7040D01*
X26983Y4683D02*
Y6023D01*
X26300Y4000D02*
X26983Y4683D01*
X17000Y4000D02*
X21700D01*
X14917Y1917D02*
X17000Y4000D01*
X10083Y1917D02*
X14917D01*
X8000Y4000D02*
X10083Y1917D01*
X12400Y4000D02*
X15873Y7473D01*
X18971D01*
X21859Y10361D01*
Y11961D01*
X21932Y12034D01*
X22543D01*
X28618Y24307D02*
X29531Y23394D01*
Y18349D02*
Y23394D01*
X22543Y17939D02*
X25441D01*
X27719Y27979D02*
Y28356D01*
X26778Y29297D02*
X27719Y28356D01*
X24537Y29297D02*
X26778D01*
X22726Y27486D02*
X24537Y29297D01*
X22726Y25886D02*
Y27486D01*
X22653Y25813D02*
X22726Y25886D01*
X22543Y25813D02*
X22653D01*
X28500Y24307D02*
X28618D01*
X28500Y27693D02*
Y34074D01*
X27381Y35193D02*
X28500Y34074D01*
X25000Y35193D02*
X27381D01*
X2070Y31456D02*
Y35430D01*
Y31456D02*
X2140Y31386D01*
X2350Y31596D01*
X8289D01*
X8500Y31807D01*
X2140Y23886D02*
X3754Y25500D01*
X19500Y31807D02*
X25000D01*
X19587Y35193D02*
X25000D01*
X19500D02*
X19587D01*
X2140Y16386D02*
Y20500D01*
X9098Y25813D02*
X9551D01*
X9026Y25886D02*
X9098Y25813D01*
X9026Y25886D02*
Y31282D01*
X8500Y31807D02*
X9026Y31282D01*
X19587Y35193D02*
X20250Y35856D01*
X14000Y31807D02*
X19500D01*
X8500D02*
X14000D01*
X8500Y35193D02*
X14000D01*
X8500Y38511D02*
X11157Y41168D01*
X8500Y35193D02*
Y38511D01*
D23*
X15500Y53500D02*
D03*
D24*
X16047Y23943D02*
D03*
X12996Y20990D02*
D03*
X16047D02*
D03*
X19098D02*
D03*
X12996Y16857D02*
D03*
X16047D02*
D03*
X19098D02*
D03*
X16047Y13904D02*
D03*
D25*
X10500Y41500D02*
D03*
X20343D02*
D03*
D26*
X28000Y47000D02*
D03*
Y37500D02*
D03*
X25469Y27047D02*
D03*
X26500Y13265D02*
D03*
X27281Y19281D02*
D03*
X6250Y16500D02*
D03*
X25469Y22500D02*
D03*
X6500Y20000D02*
D03*
Y8500D02*
D03*
X3070Y9430D02*
D03*
X5000Y25500D02*
D03*
X28000Y7500D02*
D03*
X2070Y35430D02*
D03*
M02*
