G04*
G04 #@! TF.GenerationSoftware,Altium Limited,Altium Designer,19.1.9 (167)*
G04*
G04 Layer_Color=32896*
%FSLAX25Y25*%
%MOIN*%
G70*
G01*
G75*
%ADD11C,0.00500*%
G36*
X28984Y43484D02*
X27016Y43484D01*
Y44469D01*
X28984D01*
X28984Y43484D01*
D02*
G37*
G36*
X28984Y40532D02*
X27016D01*
X27016Y41516D01*
X28984Y41516D01*
Y40532D01*
D02*
G37*
G36*
X28984Y34484D02*
X27016D01*
Y35469D01*
X28984D01*
Y34484D01*
D02*
G37*
G36*
X25984D02*
X24016D01*
Y35469D01*
X25984D01*
Y34484D01*
D02*
G37*
G36*
X23584D02*
X21616D01*
Y35469D01*
X23584D01*
Y34484D01*
D02*
G37*
G36*
X20484D02*
X18516D01*
Y35469D01*
X20484D01*
Y34484D01*
D02*
G37*
G36*
X18284D02*
X16316D01*
Y35469D01*
X18284D01*
Y34484D01*
D02*
G37*
G36*
X14984D02*
X13016D01*
Y35469D01*
X14984D01*
Y34484D01*
D02*
G37*
G36*
X12984D02*
X11016D01*
Y35469D01*
X12984D01*
Y34484D01*
D02*
G37*
G36*
X9484D02*
X7516D01*
Y35469D01*
X9484D01*
Y34484D01*
D02*
G37*
G36*
X7484D02*
X5516D01*
Y35469D01*
X7484D01*
Y34484D01*
D02*
G37*
G36*
X28984Y31532D02*
X27016D01*
Y32516D01*
X28984D01*
Y31532D01*
D02*
G37*
G36*
X25984D02*
X24016D01*
Y32516D01*
X25984D01*
Y31532D01*
D02*
G37*
G36*
X23584D02*
X21616D01*
Y32516D01*
X23584D01*
Y31532D01*
D02*
G37*
G36*
X20484D02*
X18516D01*
Y32516D01*
X20484D01*
Y31532D01*
D02*
G37*
G36*
X18284D02*
X16316D01*
Y32516D01*
X18284D01*
Y31532D01*
D02*
G37*
G36*
X14984D02*
X13016D01*
Y32516D01*
X14984D01*
Y31532D01*
D02*
G37*
G36*
X12984D02*
X11016D01*
Y32516D01*
X12984D01*
Y31532D01*
D02*
G37*
G36*
X9484D02*
X7516D01*
Y32516D01*
X9484D01*
Y31532D01*
D02*
G37*
G36*
X7484D02*
X5516D01*
Y32516D01*
X7484D01*
Y31532D01*
D02*
G37*
G36*
X3124Y30677D02*
X1156D01*
Y31661D01*
X3124D01*
Y30677D01*
D02*
G37*
G36*
Y27724D02*
X1156D01*
Y28709D01*
X3124D01*
Y27724D01*
D02*
G37*
G36*
X29484Y26984D02*
X27516D01*
Y27968D01*
X29484D01*
Y26984D01*
D02*
G37*
G36*
Y24032D02*
X27516D01*
Y25016D01*
X29484D01*
Y24032D01*
D02*
G37*
G36*
X3124Y23177D02*
X1156D01*
Y24161D01*
X3124D01*
Y23177D01*
D02*
G37*
G36*
Y20224D02*
X1156D01*
Y21209D01*
X3124D01*
Y20224D01*
D02*
G37*
G36*
Y15677D02*
X1156D01*
Y16661D01*
X3124D01*
Y15677D01*
D02*
G37*
G36*
Y12724D02*
X1156D01*
Y13709D01*
X3124D01*
Y12724D01*
D02*
G37*
D11*
X14984Y31532D02*
Y35469D01*
X13016Y31532D02*
X14984D01*
X13016D02*
Y35469D01*
X14984D01*
Y31532D02*
Y35469D01*
X13016Y31532D02*
X14984D01*
X13016D02*
Y35469D01*
X14984D01*
X11016Y31532D02*
Y35469D01*
Y31532D02*
X12984D01*
Y35469D01*
X11016D02*
X12984D01*
X11016Y31532D02*
Y35469D01*
Y31532D02*
X12984D01*
Y35469D01*
X11016D02*
X12984D01*
X9484Y31532D02*
Y35469D01*
X7516Y31532D02*
X9484D01*
X7516D02*
Y35469D01*
X9484D01*
Y31532D02*
Y35469D01*
X7516Y31532D02*
X9484D01*
X7516D02*
Y35469D01*
X9484D01*
X3124Y27724D02*
Y31661D01*
X1156Y27724D02*
X3124D01*
X1156D02*
Y31661D01*
X3124D01*
Y27724D02*
Y31661D01*
X1156Y27724D02*
X3124D01*
X1156D02*
Y31661D01*
X3124D01*
X29484Y24032D02*
Y27968D01*
X27516Y24032D02*
X29484D01*
X27516D02*
Y27968D01*
X29484D01*
Y24032D02*
Y27968D01*
X27516Y24032D02*
X29484D01*
X27516D02*
Y27968D01*
X29484D01*
X21616Y31532D02*
Y35469D01*
Y31532D02*
X23584D01*
Y35469D01*
X21616D02*
X23584D01*
X21616Y31532D02*
Y35469D01*
Y31532D02*
X23584D01*
Y35469D01*
X21616D02*
X23584D01*
X18516Y31532D02*
Y35469D01*
X20484D01*
Y31532D02*
Y35469D01*
X18516Y31532D02*
X20484D01*
X18516D02*
Y35469D01*
X20484D01*
Y31532D02*
Y35469D01*
X18516Y31532D02*
X20484D01*
X24016D02*
Y35469D01*
X25984D01*
Y31532D02*
Y35469D01*
X24016Y31532D02*
X25984D01*
X24016D02*
Y35469D01*
X25984D01*
Y31532D02*
Y35469D01*
X24016Y31532D02*
X25984D01*
X5516D02*
Y35469D01*
Y31532D02*
X7484D01*
Y35469D01*
X5516D02*
X7484D01*
X5516Y31532D02*
Y35469D01*
Y31532D02*
X7484D01*
Y35469D01*
X5516D02*
X7484D01*
X16316Y31532D02*
Y35469D01*
Y31532D02*
X18284D01*
Y35469D01*
X16316D02*
X18284D01*
X16316Y31532D02*
Y35469D01*
Y31532D02*
X18284D01*
Y35469D01*
X16316D02*
X18284D01*
X27016Y40532D02*
Y44469D01*
Y40532D02*
X28984D01*
Y44469D01*
X27016D02*
X28984D01*
X27016Y40532D02*
Y44469D01*
Y40532D02*
X28984D01*
Y44469D01*
X27016D02*
X28984D01*
X1156Y20224D02*
Y24161D01*
X3124D01*
Y20224D02*
Y24161D01*
X1156Y20224D02*
X3124D01*
X1156D02*
Y24161D01*
X3124D01*
Y20224D02*
Y24161D01*
X1156Y20224D02*
X3124D01*
X27016Y31532D02*
Y35469D01*
Y31532D02*
X28984D01*
Y35469D01*
X27016D02*
X28984D01*
X27016Y31532D02*
Y35469D01*
Y31532D02*
X28984D01*
Y35469D01*
X27016D02*
X28984D01*
X3124Y12724D02*
Y16661D01*
X1156Y12724D02*
X3124D01*
X1156D02*
Y16661D01*
X3124D01*
Y12724D02*
Y16661D01*
X1156Y12724D02*
X3124D01*
X1156D02*
Y16661D01*
X3124D01*
M02*
