M48
;Layer_Color=9474304
;FILE_FORMAT=2:5
INCH,TZ
;TYPE=PLATED
T1F00S00C0.00787
T2F00S00C0.01300
T3F00S00C0.05000
;TYPE=NON_PLATED
%
T01
X12996Y16857
X16047
Y13904
X19098Y16857
Y20990
X16047
Y23943
X12996Y20990
T02
X3070Y9430
X6500Y8500
X6250Y16500
X6500Y20000
X5000Y25500
X2070Y35430
X28000Y37500
Y47000
X25469Y27047
Y22500
X27281Y19281
X26500Y13265
X28000Y7500
T03
X10500Y41500
X20343
M30
