G04*
G04 #@! TF.GenerationSoftware,Altium Limited,Altium Designer,19.1.9 (167)*
G04*
G04 Layer_Color=8388736*
%FSLAX25Y25*%
%MOIN*%
G70*
G01*
G75*
%ADD13R,0.02965X0.02965*%
%ADD14R,0.03162X0.02926*%
%ADD15C,0.06800*%
%ADD16C,0.07800*%
G36*
X17337Y28569D02*
X17347Y28568D01*
X17358Y28567D01*
X17368Y28565D01*
X17378Y28563D01*
X17388Y28560D01*
X17397Y28556D01*
X17407Y28552D01*
X17416Y28548D01*
X17425Y28543D01*
X17434Y28537D01*
X17443Y28532D01*
X17451Y28525D01*
X17458Y28519D01*
X17466Y28512D01*
X17473Y28504D01*
X17480Y28496D01*
X17486Y28488D01*
X17492Y28480D01*
X17497Y28471D01*
X17502Y28462D01*
X17507Y28453D01*
X17511Y28443D01*
X17514Y28433D01*
X17517Y28423D01*
X17519Y28413D01*
X17521Y28403D01*
X17523Y28393D01*
X17523Y28383D01*
X17524Y28372D01*
Y24927D01*
X19886D01*
X19896Y24927D01*
X19906Y24927D01*
X19917Y24925D01*
X19927Y24923D01*
X19937Y24921D01*
X19947Y24918D01*
X19956Y24915D01*
X19966Y24911D01*
X19975Y24906D01*
X19984Y24901D01*
X19993Y24896D01*
X20001Y24890D01*
X20010Y24884D01*
X20018Y24877D01*
X20025Y24870D01*
X20032Y24862D01*
X20039Y24855D01*
X20045Y24846D01*
X20051Y24838D01*
X20056Y24829D01*
X20061Y24820D01*
X20066Y24811D01*
X20070Y24801D01*
X20073Y24791D01*
X20076Y24782D01*
X20078Y24772D01*
X20080Y24761D01*
X20082Y24751D01*
X20082Y24741D01*
X20083Y24731D01*
Y13116D01*
X20082Y13106D01*
X20082Y13096D01*
X20080Y13086D01*
X20078Y13076D01*
X20076Y13066D01*
X20073Y13056D01*
X20070Y13046D01*
X20066Y13036D01*
X20061Y13027D01*
X20056Y13018D01*
X20051Y13009D01*
X20045Y13001D01*
X20039Y12993D01*
X20032Y12985D01*
X20025Y12977D01*
X20018Y12970D01*
X20010Y12964D01*
X20001Y12957D01*
X19993Y12951D01*
X19984Y12946D01*
X19975Y12941D01*
X19966Y12937D01*
X19956Y12933D01*
X19947Y12929D01*
X19937Y12926D01*
X19927Y12924D01*
X19917Y12922D01*
X19906Y12921D01*
X19896Y12920D01*
X19886Y12920D01*
X17524D01*
Y9475D01*
X17523Y9465D01*
X17523Y9454D01*
X17521Y9444D01*
X17519Y9434D01*
X17517Y9424D01*
X17514Y9414D01*
X17511Y9404D01*
X17507Y9395D01*
X17502Y9385D01*
X17497Y9376D01*
X17492Y9368D01*
X17486Y9359D01*
X17480Y9351D01*
X17473Y9343D01*
X17466Y9336D01*
X17458Y9329D01*
X17451Y9322D01*
X17443Y9315D01*
X17434Y9310D01*
X17425Y9304D01*
X17416Y9299D01*
X17407Y9295D01*
X17397Y9291D01*
X17388Y9288D01*
X17378Y9285D01*
X17368Y9282D01*
X17358Y9280D01*
X17347Y9279D01*
X17337Y9278D01*
X17327Y9278D01*
X16933D01*
X16923Y9278D01*
X16913Y9279D01*
X16902Y9280D01*
X16892Y9282D01*
X16882Y9285D01*
X16872Y9288D01*
X16862Y9291D01*
X16853Y9295D01*
X16844Y9299D01*
X16835Y9304D01*
X16826Y9310D01*
X16817Y9315D01*
X16809Y9322D01*
X16801Y9329D01*
X16794Y9336D01*
X16787Y9343D01*
X16780Y9351D01*
X16774Y9359D01*
X16768Y9368D01*
X16763Y9376D01*
X16758Y9385D01*
X16753Y9395D01*
X16749Y9404D01*
X16746Y9414D01*
X16743Y9424D01*
X16740Y9434D01*
X16739Y9444D01*
X16737Y9454D01*
X16736Y9465D01*
X16736Y9475D01*
Y11345D01*
X15358D01*
Y9475D01*
X15358Y9465D01*
X15357Y9454D01*
X15356Y9444D01*
X15354Y9434D01*
X15352Y9424D01*
X15349Y9414D01*
X15345Y9404D01*
X15341Y9395D01*
X15337Y9385D01*
X15332Y9376D01*
X15326Y9368D01*
X15321Y9359D01*
X15314Y9351D01*
X15308Y9343D01*
X15301Y9336D01*
X15293Y9329D01*
X15285Y9322D01*
X15277Y9315D01*
X15269Y9310D01*
X15260Y9304D01*
X15251Y9299D01*
X15242Y9295D01*
X15232Y9291D01*
X15222Y9288D01*
X15212Y9285D01*
X15202Y9282D01*
X15192Y9280D01*
X15182Y9279D01*
X15172Y9278D01*
X15161Y9278D01*
X14768D01*
X14757Y9278D01*
X14747Y9279D01*
X14737Y9280D01*
X14727Y9282D01*
X14717Y9285D01*
X14707Y9288D01*
X14697Y9291D01*
X14688Y9295D01*
X14678Y9299D01*
X14669Y9304D01*
X14660Y9310D01*
X14652Y9315D01*
X14644Y9322D01*
X14636Y9329D01*
X14628Y9336D01*
X14621Y9343D01*
X14615Y9351D01*
X14608Y9359D01*
X14603Y9368D01*
X14597Y9376D01*
X14592Y9385D01*
X14588Y9395D01*
X14584Y9404D01*
X14581Y9414D01*
X14578Y9424D01*
X14575Y9434D01*
X14573Y9444D01*
X14572Y9454D01*
X14571Y9465D01*
X14571Y9475D01*
Y12920D01*
X12209D01*
X12198Y12920D01*
X12188Y12921D01*
X12178Y12922D01*
X12168Y12924D01*
X12158Y12926D01*
X12148Y12929D01*
X12138Y12933D01*
X12129Y12937D01*
X12119Y12941D01*
X12110Y12946D01*
X12101Y12951D01*
X12093Y12957D01*
X12085Y12964D01*
X12077Y12970D01*
X12070Y12977D01*
X12062Y12985D01*
X12056Y12993D01*
X12049Y13001D01*
X12044Y13009D01*
X12038Y13018D01*
X12033Y13027D01*
X12029Y13036D01*
X12025Y13046D01*
X12021Y13056D01*
X12019Y13066D01*
X12016Y13076D01*
X12014Y13086D01*
X12013Y13096D01*
X12012Y13106D01*
X12012Y13116D01*
Y24731D01*
X12012Y24741D01*
X12013Y24751D01*
X12014Y24761D01*
X12016Y24772D01*
X12019Y24782D01*
X12021Y24791D01*
X12025Y24801D01*
X12029Y24811D01*
X12033Y24820D01*
X12038Y24829D01*
X12044Y24838D01*
X12049Y24846D01*
X12056Y24855D01*
X12062Y24862D01*
X12070Y24870D01*
X12077Y24877D01*
X12085Y24884D01*
X12093Y24890D01*
X12101Y24896D01*
X12110Y24901D01*
X12119Y24906D01*
X12129Y24911D01*
X12138Y24915D01*
X12148Y24918D01*
X12158Y24921D01*
X12168Y24923D01*
X12178Y24925D01*
X12188Y24927D01*
X12198Y24927D01*
X12209Y24927D01*
X14571D01*
Y28372D01*
X14571Y28383D01*
X14572Y28393D01*
X14573Y28403D01*
X14575Y28413D01*
X14578Y28423D01*
X14581Y28433D01*
X14584Y28443D01*
X14588Y28453D01*
X14592Y28462D01*
X14597Y28471D01*
X14603Y28480D01*
X14608Y28488D01*
X14615Y28496D01*
X14621Y28504D01*
X14628Y28512D01*
X14636Y28519D01*
X14644Y28525D01*
X14652Y28532D01*
X14660Y28537D01*
X14669Y28543D01*
X14678Y28548D01*
X14688Y28552D01*
X14697Y28556D01*
X14707Y28560D01*
X14717Y28563D01*
X14727Y28565D01*
X14737Y28567D01*
X14747Y28568D01*
X14757Y28569D01*
X14768Y28569D01*
X15161D01*
X15172Y28569D01*
X15182Y28568D01*
X15192Y28567D01*
X15202Y28565D01*
X15212Y28563D01*
X15222Y28560D01*
X15232Y28556D01*
X15242Y28552D01*
X15251Y28548D01*
X15260Y28543D01*
X15269Y28537D01*
X15277Y28532D01*
X15285Y28525D01*
X15293Y28519D01*
X15301Y28512D01*
X15308Y28504D01*
X15314Y28496D01*
X15321Y28488D01*
X15326Y28480D01*
X15332Y28471D01*
X15337Y28462D01*
X15341Y28453D01*
X15345Y28443D01*
X15349Y28433D01*
X15352Y28423D01*
X15354Y28413D01*
X15356Y28403D01*
X15357Y28393D01*
X15358Y28383D01*
X15358Y28372D01*
Y26502D01*
X16736D01*
Y28372D01*
X16736Y28383D01*
X16737Y28393D01*
X16739Y28403D01*
X16740Y28413D01*
X16743Y28423D01*
X16746Y28433D01*
X16749Y28443D01*
X16753Y28453D01*
X16758Y28462D01*
X16763Y28471D01*
X16768Y28480D01*
X16774Y28488D01*
X16780Y28496D01*
X16787Y28504D01*
X16794Y28512D01*
X16801Y28519D01*
X16809Y28525D01*
X16817Y28532D01*
X16826Y28537D01*
X16835Y28543D01*
X16844Y28548D01*
X16853Y28552D01*
X16862Y28556D01*
X16872Y28560D01*
X16882Y28563D01*
X16892Y28565D01*
X16902Y28567D01*
X16913Y28568D01*
X16923Y28569D01*
X16933Y28569D01*
X17327D01*
X17337Y28569D01*
D02*
G37*
G36*
X19300Y28844D02*
X19325Y28842D01*
X19350Y28839D01*
X19374Y28835D01*
X19398Y28829D01*
X19422Y28822D01*
X19445Y28813D01*
X19468Y28804D01*
X19490Y28793D01*
X19512Y28782D01*
X19533Y28769D01*
X19553Y28755D01*
X19573Y28740D01*
X19592Y28723D01*
X19610Y28706D01*
X19627Y28688D01*
X19643Y28670D01*
X19658Y28650D01*
X19672Y28630D01*
X19685Y28609D01*
X19696Y28587D01*
X19707Y28565D01*
X19717Y28542D01*
X19725Y28518D01*
X19732Y28495D01*
X19738Y28471D01*
X19742Y28446D01*
X19745Y28422D01*
X19747Y28397D01*
X19748Y28372D01*
Y26404D01*
X19747Y26379D01*
X19745Y26355D01*
X19742Y26330D01*
X19738Y26306D01*
X19732Y26282D01*
X19725Y26258D01*
X19717Y26235D01*
X19707Y26212D01*
X19696Y26189D01*
X19685Y26168D01*
X19672Y26147D01*
X19658Y26126D01*
X19643Y26107D01*
X19627Y26088D01*
X19610Y26070D01*
X19592Y26053D01*
X19573Y26037D01*
X19553Y26022D01*
X19533Y26008D01*
X19512Y25995D01*
X19490Y25983D01*
X19468Y25972D01*
X19445Y25963D01*
X19422Y25955D01*
X19398Y25948D01*
X19374Y25942D01*
X19350Y25937D01*
X19325Y25934D01*
X19300Y25932D01*
X19276Y25932D01*
X18724D01*
X18700Y25932D01*
X18675Y25934D01*
X18651Y25937D01*
X18626Y25942D01*
X18602Y25948D01*
X18578Y25955D01*
X18555Y25963D01*
X18532Y25972D01*
X18510Y25983D01*
X18488Y25995D01*
X18467Y26008D01*
X18447Y26022D01*
X18427Y26037D01*
X18408Y26053D01*
X18390Y26070D01*
X18373Y26088D01*
X18357Y26107D01*
X18342Y26126D01*
X18328Y26147D01*
X18315Y26168D01*
X18304Y26189D01*
X18293Y26212D01*
X18283Y26235D01*
X18275Y26258D01*
X18268Y26282D01*
X18262Y26306D01*
X18258Y26330D01*
X18255Y26355D01*
X18253Y26379D01*
X18252Y26404D01*
Y28372D01*
X18253Y28397D01*
X18255Y28422D01*
X18258Y28446D01*
X18262Y28471D01*
X18268Y28495D01*
X18275Y28518D01*
X18283Y28542D01*
X18293Y28565D01*
X18304Y28587D01*
X18315Y28609D01*
X18328Y28630D01*
X18342Y28650D01*
X18357Y28670D01*
X18373Y28688D01*
X18390Y28706D01*
X18408Y28723D01*
X18427Y28740D01*
X18447Y28755D01*
X18467Y28769D01*
X18488Y28782D01*
X18510Y28793D01*
X18532Y28804D01*
X18555Y28813D01*
X18578Y28822D01*
X18602Y28829D01*
X18626Y28835D01*
X18651Y28839D01*
X18675Y28842D01*
X18700Y28844D01*
X18724Y28845D01*
X19276D01*
X19300Y28844D01*
D02*
G37*
G36*
X13395D02*
X13419Y28842D01*
X13444Y28839D01*
X13468Y28835D01*
X13492Y28829D01*
X13516Y28822D01*
X13539Y28813D01*
X13562Y28804D01*
X13585Y28793D01*
X13606Y28782D01*
X13627Y28769D01*
X13648Y28755D01*
X13667Y28740D01*
X13686Y28723D01*
X13704Y28706D01*
X13721Y28688D01*
X13737Y28670D01*
X13752Y28650D01*
X13766Y28630D01*
X13779Y28609D01*
X13791Y28587D01*
X13802Y28565D01*
X13811Y28542D01*
X13819Y28518D01*
X13826Y28495D01*
X13832Y28471D01*
X13837Y28446D01*
X13840Y28422D01*
X13842Y28397D01*
X13842Y28372D01*
Y26404D01*
X13842Y26379D01*
X13840Y26355D01*
X13837Y26330D01*
X13832Y26306D01*
X13826Y26282D01*
X13819Y26258D01*
X13811Y26235D01*
X13802Y26212D01*
X13791Y26189D01*
X13779Y26168D01*
X13766Y26147D01*
X13752Y26126D01*
X13737Y26107D01*
X13721Y26088D01*
X13704Y26070D01*
X13686Y26053D01*
X13667Y26037D01*
X13648Y26022D01*
X13627Y26008D01*
X13606Y25995D01*
X13585Y25983D01*
X13562Y25972D01*
X13539Y25963D01*
X13516Y25955D01*
X13492Y25948D01*
X13468Y25942D01*
X13444Y25937D01*
X13419Y25934D01*
X13395Y25932D01*
X13370Y25932D01*
X12819D01*
X12794Y25932D01*
X12769Y25934D01*
X12745Y25937D01*
X12721Y25942D01*
X12697Y25948D01*
X12673Y25955D01*
X12650Y25963D01*
X12627Y25972D01*
X12604Y25983D01*
X12583Y25995D01*
X12562Y26008D01*
X12541Y26022D01*
X12522Y26037D01*
X12503Y26053D01*
X12485Y26070D01*
X12468Y26088D01*
X12452Y26107D01*
X12437Y26126D01*
X12423Y26147D01*
X12410Y26168D01*
X12398Y26189D01*
X12387Y26212D01*
X12378Y26235D01*
X12370Y26258D01*
X12363Y26282D01*
X12357Y26306D01*
X12352Y26330D01*
X12349Y26355D01*
X12347Y26379D01*
X12347Y26404D01*
Y28372D01*
X12347Y28397D01*
X12349Y28422D01*
X12352Y28446D01*
X12357Y28471D01*
X12363Y28495D01*
X12370Y28518D01*
X12378Y28542D01*
X12387Y28565D01*
X12398Y28587D01*
X12410Y28609D01*
X12423Y28630D01*
X12437Y28650D01*
X12452Y28670D01*
X12468Y28688D01*
X12485Y28706D01*
X12503Y28723D01*
X12522Y28740D01*
X12541Y28755D01*
X12562Y28769D01*
X12583Y28782D01*
X12604Y28793D01*
X12627Y28804D01*
X12650Y28813D01*
X12673Y28822D01*
X12697Y28829D01*
X12721Y28835D01*
X12745Y28839D01*
X12769Y28842D01*
X12794Y28844D01*
X12819Y28845D01*
X13370D01*
X13395Y28844D01*
D02*
G37*
G36*
X23552Y26561D02*
X23577Y26559D01*
X23602Y26556D01*
X23626Y26551D01*
X23650Y26545D01*
X23674Y26538D01*
X23697Y26530D01*
X23720Y26520D01*
X23742Y26510D01*
X23764Y26498D01*
X23785Y26485D01*
X23805Y26471D01*
X23825Y26456D01*
X23844Y26440D01*
X23862Y26423D01*
X23879Y26405D01*
X23895Y26386D01*
X23910Y26367D01*
X23924Y26346D01*
X23937Y26325D01*
X23948Y26303D01*
X23959Y26281D01*
X23969Y26258D01*
X23977Y26235D01*
X23984Y26211D01*
X23990Y26187D01*
X23994Y26163D01*
X23997Y26138D01*
X23999Y26114D01*
X24000Y26089D01*
Y25538D01*
X23999Y25513D01*
X23997Y25488D01*
X23994Y25464D01*
X23990Y25440D01*
X23984Y25416D01*
X23977Y25392D01*
X23969Y25368D01*
X23959Y25346D01*
X23948Y25323D01*
X23937Y25302D01*
X23924Y25280D01*
X23910Y25260D01*
X23895Y25240D01*
X23879Y25222D01*
X23862Y25204D01*
X23844Y25187D01*
X23825Y25171D01*
X23805Y25156D01*
X23785Y25142D01*
X23764Y25129D01*
X23742Y25117D01*
X23720Y25106D01*
X23697Y25097D01*
X23674Y25089D01*
X23650Y25081D01*
X23626Y25076D01*
X23602Y25071D01*
X23577Y25068D01*
X23552Y25066D01*
X23528Y25065D01*
X21559D01*
X21534Y25066D01*
X21510Y25068D01*
X21485Y25071D01*
X21461Y25076D01*
X21437Y25081D01*
X21413Y25089D01*
X21390Y25097D01*
X21367Y25106D01*
X21345Y25117D01*
X21323Y25129D01*
X21302Y25142D01*
X21281Y25156D01*
X21262Y25171D01*
X21243Y25187D01*
X21225Y25204D01*
X21208Y25222D01*
X21192Y25240D01*
X21177Y25260D01*
X21163Y25280D01*
X21150Y25302D01*
X21138Y25323D01*
X21127Y25346D01*
X21118Y25368D01*
X21110Y25392D01*
X21103Y25416D01*
X21097Y25440D01*
X21092Y25464D01*
X21089Y25488D01*
X21087Y25513D01*
X21087Y25538D01*
Y26089D01*
X21087Y26114D01*
X21089Y26138D01*
X21092Y26163D01*
X21097Y26187D01*
X21103Y26211D01*
X21110Y26235D01*
X21118Y26258D01*
X21127Y26281D01*
X21138Y26303D01*
X21150Y26325D01*
X21163Y26346D01*
X21177Y26367D01*
X21192Y26386D01*
X21208Y26405D01*
X21225Y26423D01*
X21243Y26440D01*
X21262Y26456D01*
X21281Y26471D01*
X21302Y26485D01*
X21323Y26498D01*
X21345Y26510D01*
X21367Y26520D01*
X21390Y26530D01*
X21413Y26538D01*
X21437Y26545D01*
X21461Y26551D01*
X21485Y26556D01*
X21510Y26559D01*
X21534Y26561D01*
X21559Y26561D01*
X23528D01*
X23552Y26561D01*
D02*
G37*
G36*
X10560D02*
X10585Y26559D01*
X10609Y26556D01*
X10634Y26551D01*
X10658Y26545D01*
X10681Y26538D01*
X10705Y26530D01*
X10728Y26520D01*
X10750Y26510D01*
X10772Y26498D01*
X10793Y26485D01*
X10813Y26471D01*
X10833Y26456D01*
X10852Y26440D01*
X10870Y26423D01*
X10887Y26405D01*
X10903Y26386D01*
X10918Y26367D01*
X10932Y26346D01*
X10945Y26325D01*
X10956Y26303D01*
X10967Y26281D01*
X10977Y26258D01*
X10985Y26235D01*
X10992Y26211D01*
X10998Y26187D01*
X11002Y26163D01*
X11005Y26138D01*
X11007Y26114D01*
X11008Y26089D01*
Y25538D01*
X11007Y25513D01*
X11005Y25488D01*
X11002Y25464D01*
X10998Y25440D01*
X10992Y25416D01*
X10985Y25392D01*
X10977Y25368D01*
X10967Y25346D01*
X10956Y25323D01*
X10945Y25302D01*
X10932Y25280D01*
X10918Y25260D01*
X10903Y25240D01*
X10887Y25222D01*
X10870Y25204D01*
X10852Y25187D01*
X10833Y25171D01*
X10813Y25156D01*
X10793Y25142D01*
X10772Y25129D01*
X10750Y25117D01*
X10728Y25106D01*
X10705Y25097D01*
X10681Y25089D01*
X10658Y25081D01*
X10634Y25076D01*
X10609Y25071D01*
X10585Y25068D01*
X10560Y25066D01*
X10535Y25065D01*
X8567D01*
X8542Y25066D01*
X8518Y25068D01*
X8493Y25071D01*
X8469Y25076D01*
X8445Y25081D01*
X8421Y25089D01*
X8398Y25097D01*
X8375Y25106D01*
X8352Y25117D01*
X8331Y25129D01*
X8310Y25142D01*
X8289Y25156D01*
X8270Y25171D01*
X8251Y25187D01*
X8233Y25204D01*
X8216Y25222D01*
X8200Y25240D01*
X8185Y25260D01*
X8171Y25280D01*
X8158Y25302D01*
X8146Y25323D01*
X8135Y25346D01*
X8126Y25368D01*
X8118Y25392D01*
X8111Y25416D01*
X8105Y25440D01*
X8100Y25464D01*
X8097Y25488D01*
X8095Y25513D01*
X8095Y25538D01*
Y26089D01*
X8095Y26114D01*
X8097Y26138D01*
X8100Y26163D01*
X8105Y26187D01*
X8111Y26211D01*
X8118Y26235D01*
X8126Y26258D01*
X8135Y26281D01*
X8146Y26303D01*
X8158Y26325D01*
X8171Y26346D01*
X8185Y26367D01*
X8200Y26386D01*
X8216Y26405D01*
X8233Y26423D01*
X8251Y26440D01*
X8270Y26456D01*
X8289Y26471D01*
X8310Y26485D01*
X8331Y26498D01*
X8352Y26510D01*
X8375Y26520D01*
X8398Y26530D01*
X8421Y26538D01*
X8445Y26545D01*
X8469Y26551D01*
X8493Y26556D01*
X8518Y26559D01*
X8542Y26561D01*
X8567Y26561D01*
X10535D01*
X10560Y26561D01*
D02*
G37*
G36*
X23552Y24592D02*
X23577Y24590D01*
X23602Y24587D01*
X23626Y24583D01*
X23650Y24577D01*
X23674Y24570D01*
X23697Y24562D01*
X23720Y24552D01*
X23742Y24541D01*
X23764Y24530D01*
X23785Y24517D01*
X23805Y24503D01*
X23825Y24488D01*
X23844Y24472D01*
X23862Y24454D01*
X23879Y24437D01*
X23895Y24418D01*
X23910Y24398D01*
X23924Y24378D01*
X23937Y24357D01*
X23948Y24335D01*
X23959Y24313D01*
X23969Y24290D01*
X23977Y24266D01*
X23984Y24243D01*
X23990Y24219D01*
X23994Y24194D01*
X23997Y24170D01*
X23999Y24145D01*
X24000Y24120D01*
Y23569D01*
X23999Y23544D01*
X23997Y23520D01*
X23994Y23495D01*
X23990Y23471D01*
X23984Y23447D01*
X23977Y23423D01*
X23969Y23400D01*
X23959Y23377D01*
X23948Y23355D01*
X23937Y23333D01*
X23924Y23312D01*
X23910Y23292D01*
X23895Y23272D01*
X23879Y23253D01*
X23862Y23235D01*
X23844Y23218D01*
X23825Y23202D01*
X23805Y23187D01*
X23785Y23173D01*
X23764Y23160D01*
X23742Y23148D01*
X23720Y23138D01*
X23697Y23128D01*
X23674Y23120D01*
X23650Y23113D01*
X23626Y23107D01*
X23602Y23103D01*
X23577Y23099D01*
X23552Y23098D01*
X23528Y23097D01*
X21559D01*
X21534Y23098D01*
X21510Y23099D01*
X21485Y23103D01*
X21461Y23107D01*
X21437Y23113D01*
X21413Y23120D01*
X21390Y23128D01*
X21367Y23138D01*
X21345Y23148D01*
X21323Y23160D01*
X21302Y23173D01*
X21281Y23187D01*
X21262Y23202D01*
X21243Y23218D01*
X21225Y23235D01*
X21208Y23253D01*
X21192Y23272D01*
X21177Y23292D01*
X21163Y23312D01*
X21150Y23333D01*
X21138Y23355D01*
X21127Y23377D01*
X21118Y23400D01*
X21110Y23423D01*
X21103Y23447D01*
X21097Y23471D01*
X21092Y23495D01*
X21089Y23520D01*
X21087Y23544D01*
X21087Y23569D01*
Y24120D01*
X21087Y24145D01*
X21089Y24170D01*
X21092Y24194D01*
X21097Y24219D01*
X21103Y24243D01*
X21110Y24266D01*
X21118Y24290D01*
X21127Y24313D01*
X21138Y24335D01*
X21150Y24357D01*
X21163Y24378D01*
X21177Y24398D01*
X21192Y24418D01*
X21208Y24437D01*
X21225Y24454D01*
X21243Y24472D01*
X21262Y24488D01*
X21281Y24503D01*
X21302Y24517D01*
X21323Y24530D01*
X21345Y24541D01*
X21367Y24552D01*
X21390Y24562D01*
X21413Y24570D01*
X21437Y24577D01*
X21461Y24583D01*
X21485Y24587D01*
X21510Y24590D01*
X21534Y24592D01*
X21559Y24593D01*
X23528D01*
X23552Y24592D01*
D02*
G37*
G36*
X10560D02*
X10585Y24590D01*
X10609Y24587D01*
X10634Y24583D01*
X10658Y24577D01*
X10681Y24570D01*
X10705Y24562D01*
X10728Y24552D01*
X10750Y24541D01*
X10772Y24530D01*
X10793Y24517D01*
X10813Y24503D01*
X10833Y24488D01*
X10852Y24472D01*
X10870Y24454D01*
X10887Y24437D01*
X10903Y24418D01*
X10918Y24398D01*
X10932Y24378D01*
X10945Y24357D01*
X10956Y24335D01*
X10967Y24313D01*
X10977Y24290D01*
X10985Y24266D01*
X10992Y24243D01*
X10998Y24219D01*
X11002Y24194D01*
X11005Y24170D01*
X11007Y24145D01*
X11008Y24120D01*
Y23569D01*
X11007Y23544D01*
X11005Y23520D01*
X11002Y23495D01*
X10998Y23471D01*
X10992Y23447D01*
X10985Y23423D01*
X10977Y23400D01*
X10967Y23377D01*
X10956Y23355D01*
X10945Y23333D01*
X10932Y23312D01*
X10918Y23292D01*
X10903Y23272D01*
X10887Y23253D01*
X10870Y23235D01*
X10852Y23218D01*
X10833Y23202D01*
X10813Y23187D01*
X10793Y23173D01*
X10772Y23160D01*
X10750Y23148D01*
X10728Y23138D01*
X10705Y23128D01*
X10681Y23120D01*
X10658Y23113D01*
X10634Y23107D01*
X10609Y23103D01*
X10585Y23099D01*
X10560Y23098D01*
X10535Y23097D01*
X8567D01*
X8542Y23098D01*
X8518Y23099D01*
X8493Y23103D01*
X8469Y23107D01*
X8445Y23113D01*
X8421Y23120D01*
X8398Y23128D01*
X8375Y23138D01*
X8352Y23148D01*
X8331Y23160D01*
X8310Y23173D01*
X8289Y23187D01*
X8270Y23202D01*
X8251Y23218D01*
X8233Y23235D01*
X8216Y23253D01*
X8200Y23272D01*
X8185Y23292D01*
X8171Y23312D01*
X8158Y23333D01*
X8146Y23355D01*
X8135Y23377D01*
X8126Y23400D01*
X8118Y23423D01*
X8111Y23447D01*
X8105Y23471D01*
X8100Y23495D01*
X8097Y23520D01*
X8095Y23544D01*
X8095Y23569D01*
Y24120D01*
X8095Y24145D01*
X8097Y24170D01*
X8100Y24194D01*
X8105Y24219D01*
X8111Y24243D01*
X8118Y24266D01*
X8126Y24290D01*
X8135Y24313D01*
X8146Y24335D01*
X8158Y24357D01*
X8171Y24378D01*
X8185Y24398D01*
X8200Y24418D01*
X8216Y24437D01*
X8233Y24454D01*
X8251Y24472D01*
X8270Y24488D01*
X8289Y24503D01*
X8310Y24517D01*
X8331Y24530D01*
X8352Y24541D01*
X8375Y24552D01*
X8398Y24562D01*
X8421Y24570D01*
X8445Y24577D01*
X8469Y24583D01*
X8493Y24587D01*
X8518Y24590D01*
X8542Y24592D01*
X8567Y24593D01*
X10535D01*
X10560Y24592D01*
D02*
G37*
G36*
X23552Y22624D02*
X23577Y22622D01*
X23602Y22619D01*
X23626Y22614D01*
X23650Y22608D01*
X23674Y22601D01*
X23697Y22593D01*
X23720Y22583D01*
X23742Y22573D01*
X23764Y22561D01*
X23785Y22548D01*
X23805Y22534D01*
X23825Y22519D01*
X23844Y22503D01*
X23862Y22486D01*
X23879Y22468D01*
X23895Y22449D01*
X23910Y22430D01*
X23924Y22409D01*
X23937Y22388D01*
X23948Y22366D01*
X23959Y22344D01*
X23969Y22321D01*
X23977Y22298D01*
X23984Y22274D01*
X23990Y22250D01*
X23994Y22226D01*
X23997Y22201D01*
X23999Y22177D01*
X24000Y22152D01*
Y21601D01*
X23999Y21576D01*
X23997Y21551D01*
X23994Y21527D01*
X23990Y21502D01*
X23984Y21478D01*
X23977Y21455D01*
X23969Y21431D01*
X23959Y21409D01*
X23948Y21386D01*
X23937Y21364D01*
X23924Y21343D01*
X23910Y21323D01*
X23895Y21304D01*
X23879Y21285D01*
X23862Y21267D01*
X23844Y21250D01*
X23825Y21234D01*
X23805Y21218D01*
X23785Y21204D01*
X23764Y21192D01*
X23742Y21180D01*
X23720Y21169D01*
X23697Y21160D01*
X23674Y21151D01*
X23650Y21144D01*
X23626Y21139D01*
X23602Y21134D01*
X23577Y21131D01*
X23552Y21129D01*
X23528Y21128D01*
X21559D01*
X21534Y21129D01*
X21510Y21131D01*
X21485Y21134D01*
X21461Y21139D01*
X21437Y21144D01*
X21413Y21151D01*
X21390Y21160D01*
X21367Y21169D01*
X21345Y21180D01*
X21323Y21192D01*
X21302Y21204D01*
X21281Y21218D01*
X21262Y21234D01*
X21243Y21250D01*
X21225Y21267D01*
X21208Y21285D01*
X21192Y21304D01*
X21177Y21323D01*
X21163Y21343D01*
X21150Y21364D01*
X21138Y21386D01*
X21127Y21409D01*
X21118Y21431D01*
X21110Y21455D01*
X21103Y21478D01*
X21097Y21502D01*
X21092Y21527D01*
X21089Y21551D01*
X21087Y21576D01*
X21087Y21601D01*
Y22152D01*
X21087Y22177D01*
X21089Y22201D01*
X21092Y22226D01*
X21097Y22250D01*
X21103Y22274D01*
X21110Y22298D01*
X21118Y22321D01*
X21127Y22344D01*
X21138Y22366D01*
X21150Y22388D01*
X21163Y22409D01*
X21177Y22430D01*
X21192Y22449D01*
X21208Y22468D01*
X21225Y22486D01*
X21243Y22503D01*
X21262Y22519D01*
X21281Y22534D01*
X21302Y22548D01*
X21323Y22561D01*
X21345Y22573D01*
X21367Y22583D01*
X21390Y22593D01*
X21413Y22601D01*
X21437Y22608D01*
X21461Y22614D01*
X21485Y22619D01*
X21510Y22622D01*
X21534Y22624D01*
X21559Y22624D01*
X23528D01*
X23552Y22624D01*
D02*
G37*
G36*
X10560D02*
X10585Y22622D01*
X10609Y22619D01*
X10634Y22614D01*
X10658Y22608D01*
X10681Y22601D01*
X10705Y22593D01*
X10728Y22583D01*
X10750Y22573D01*
X10772Y22561D01*
X10793Y22548D01*
X10813Y22534D01*
X10833Y22519D01*
X10852Y22503D01*
X10870Y22486D01*
X10887Y22468D01*
X10903Y22449D01*
X10918Y22430D01*
X10932Y22409D01*
X10945Y22388D01*
X10956Y22366D01*
X10967Y22344D01*
X10977Y22321D01*
X10985Y22298D01*
X10992Y22274D01*
X10998Y22250D01*
X11002Y22226D01*
X11005Y22201D01*
X11007Y22177D01*
X11008Y22152D01*
Y21601D01*
X11007Y21576D01*
X11005Y21551D01*
X11002Y21527D01*
X10998Y21502D01*
X10992Y21478D01*
X10985Y21455D01*
X10977Y21431D01*
X10967Y21409D01*
X10956Y21386D01*
X10945Y21364D01*
X10932Y21343D01*
X10918Y21323D01*
X10903Y21304D01*
X10887Y21285D01*
X10870Y21267D01*
X10852Y21250D01*
X10833Y21234D01*
X10813Y21218D01*
X10793Y21204D01*
X10772Y21192D01*
X10750Y21180D01*
X10728Y21169D01*
X10705Y21160D01*
X10681Y21151D01*
X10658Y21144D01*
X10634Y21139D01*
X10609Y21134D01*
X10585Y21131D01*
X10560Y21129D01*
X10535Y21128D01*
X8567D01*
X8542Y21129D01*
X8518Y21131D01*
X8493Y21134D01*
X8469Y21139D01*
X8445Y21144D01*
X8421Y21151D01*
X8398Y21160D01*
X8375Y21169D01*
X8352Y21180D01*
X8331Y21192D01*
X8310Y21204D01*
X8289Y21218D01*
X8270Y21234D01*
X8251Y21250D01*
X8233Y21267D01*
X8216Y21285D01*
X8200Y21304D01*
X8185Y21323D01*
X8171Y21343D01*
X8158Y21364D01*
X8146Y21386D01*
X8135Y21409D01*
X8126Y21431D01*
X8118Y21455D01*
X8111Y21478D01*
X8105Y21502D01*
X8100Y21527D01*
X8097Y21551D01*
X8095Y21576D01*
X8095Y21601D01*
Y22152D01*
X8095Y22177D01*
X8097Y22201D01*
X8100Y22226D01*
X8105Y22250D01*
X8111Y22274D01*
X8118Y22298D01*
X8126Y22321D01*
X8135Y22344D01*
X8146Y22366D01*
X8158Y22388D01*
X8171Y22409D01*
X8185Y22430D01*
X8200Y22449D01*
X8216Y22468D01*
X8233Y22486D01*
X8251Y22503D01*
X8270Y22519D01*
X8289Y22534D01*
X8310Y22548D01*
X8331Y22561D01*
X8352Y22573D01*
X8375Y22583D01*
X8398Y22593D01*
X8421Y22601D01*
X8445Y22608D01*
X8469Y22614D01*
X8493Y22619D01*
X8518Y22622D01*
X8542Y22624D01*
X8567Y22624D01*
X10535D01*
X10560Y22624D01*
D02*
G37*
G36*
X23552Y20655D02*
X23577Y20653D01*
X23602Y20650D01*
X23626Y20646D01*
X23650Y20640D01*
X23674Y20633D01*
X23697Y20625D01*
X23720Y20615D01*
X23742Y20604D01*
X23764Y20593D01*
X23785Y20580D01*
X23805Y20566D01*
X23825Y20551D01*
X23844Y20535D01*
X23862Y20517D01*
X23879Y20500D01*
X23895Y20481D01*
X23910Y20461D01*
X23924Y20441D01*
X23937Y20420D01*
X23948Y20398D01*
X23959Y20376D01*
X23969Y20353D01*
X23977Y20329D01*
X23984Y20306D01*
X23990Y20282D01*
X23994Y20257D01*
X23997Y20233D01*
X23999Y20208D01*
X24000Y20183D01*
Y19632D01*
X23999Y19608D01*
X23997Y19583D01*
X23994Y19558D01*
X23990Y19534D01*
X23984Y19510D01*
X23977Y19486D01*
X23969Y19463D01*
X23959Y19440D01*
X23948Y19418D01*
X23937Y19396D01*
X23924Y19375D01*
X23910Y19355D01*
X23895Y19335D01*
X23879Y19316D01*
X23862Y19298D01*
X23844Y19281D01*
X23825Y19265D01*
X23805Y19250D01*
X23785Y19236D01*
X23764Y19223D01*
X23742Y19211D01*
X23720Y19201D01*
X23697Y19191D01*
X23674Y19183D01*
X23650Y19176D01*
X23626Y19170D01*
X23602Y19166D01*
X23577Y19162D01*
X23552Y19161D01*
X23528Y19160D01*
X21559D01*
X21534Y19161D01*
X21510Y19162D01*
X21485Y19166D01*
X21461Y19170D01*
X21437Y19176D01*
X21413Y19183D01*
X21390Y19191D01*
X21367Y19201D01*
X21345Y19211D01*
X21323Y19223D01*
X21302Y19236D01*
X21281Y19250D01*
X21262Y19265D01*
X21243Y19281D01*
X21225Y19298D01*
X21208Y19316D01*
X21192Y19335D01*
X21177Y19355D01*
X21163Y19375D01*
X21150Y19396D01*
X21138Y19418D01*
X21127Y19440D01*
X21118Y19463D01*
X21110Y19486D01*
X21103Y19510D01*
X21097Y19534D01*
X21092Y19558D01*
X21089Y19583D01*
X21087Y19608D01*
X21087Y19632D01*
Y20183D01*
X21087Y20208D01*
X21089Y20233D01*
X21092Y20257D01*
X21097Y20282D01*
X21103Y20306D01*
X21110Y20329D01*
X21118Y20353D01*
X21127Y20376D01*
X21138Y20398D01*
X21150Y20420D01*
X21163Y20441D01*
X21177Y20461D01*
X21192Y20481D01*
X21208Y20500D01*
X21225Y20517D01*
X21243Y20535D01*
X21262Y20551D01*
X21281Y20566D01*
X21302Y20580D01*
X21323Y20593D01*
X21345Y20604D01*
X21367Y20615D01*
X21390Y20625D01*
X21413Y20633D01*
X21437Y20640D01*
X21461Y20646D01*
X21485Y20650D01*
X21510Y20653D01*
X21534Y20655D01*
X21559Y20656D01*
X23528D01*
X23552Y20655D01*
D02*
G37*
G36*
X10560D02*
X10585Y20653D01*
X10609Y20650D01*
X10634Y20646D01*
X10658Y20640D01*
X10681Y20633D01*
X10705Y20625D01*
X10728Y20615D01*
X10750Y20604D01*
X10772Y20593D01*
X10793Y20580D01*
X10813Y20566D01*
X10833Y20551D01*
X10852Y20535D01*
X10870Y20517D01*
X10887Y20500D01*
X10903Y20481D01*
X10918Y20461D01*
X10932Y20441D01*
X10945Y20420D01*
X10956Y20398D01*
X10967Y20376D01*
X10977Y20353D01*
X10985Y20329D01*
X10992Y20306D01*
X10998Y20282D01*
X11002Y20257D01*
X11005Y20233D01*
X11007Y20208D01*
X11008Y20183D01*
Y19632D01*
X11007Y19608D01*
X11005Y19583D01*
X11002Y19558D01*
X10998Y19534D01*
X10992Y19510D01*
X10985Y19486D01*
X10977Y19463D01*
X10967Y19440D01*
X10956Y19418D01*
X10945Y19396D01*
X10932Y19375D01*
X10918Y19355D01*
X10903Y19335D01*
X10887Y19316D01*
X10870Y19298D01*
X10852Y19281D01*
X10833Y19265D01*
X10813Y19250D01*
X10793Y19236D01*
X10772Y19223D01*
X10750Y19211D01*
X10728Y19201D01*
X10705Y19191D01*
X10681Y19183D01*
X10658Y19176D01*
X10634Y19170D01*
X10609Y19166D01*
X10585Y19162D01*
X10560Y19161D01*
X10535Y19160D01*
X8567D01*
X8542Y19161D01*
X8518Y19162D01*
X8493Y19166D01*
X8469Y19170D01*
X8445Y19176D01*
X8421Y19183D01*
X8398Y19191D01*
X8375Y19201D01*
X8352Y19211D01*
X8331Y19223D01*
X8310Y19236D01*
X8289Y19250D01*
X8270Y19265D01*
X8251Y19281D01*
X8233Y19298D01*
X8216Y19316D01*
X8200Y19335D01*
X8185Y19355D01*
X8171Y19375D01*
X8158Y19396D01*
X8146Y19418D01*
X8135Y19440D01*
X8126Y19463D01*
X8118Y19486D01*
X8111Y19510D01*
X8105Y19534D01*
X8100Y19558D01*
X8097Y19583D01*
X8095Y19608D01*
X8095Y19632D01*
Y20183D01*
X8095Y20208D01*
X8097Y20233D01*
X8100Y20257D01*
X8105Y20282D01*
X8111Y20306D01*
X8118Y20329D01*
X8126Y20353D01*
X8135Y20376D01*
X8146Y20398D01*
X8158Y20420D01*
X8171Y20441D01*
X8185Y20461D01*
X8200Y20481D01*
X8216Y20500D01*
X8233Y20517D01*
X8251Y20535D01*
X8270Y20551D01*
X8289Y20566D01*
X8310Y20580D01*
X8331Y20593D01*
X8352Y20604D01*
X8375Y20615D01*
X8398Y20625D01*
X8421Y20633D01*
X8445Y20640D01*
X8469Y20646D01*
X8493Y20650D01*
X8518Y20653D01*
X8542Y20655D01*
X8567Y20656D01*
X10535D01*
X10560Y20655D01*
D02*
G37*
G36*
X23552Y18687D02*
X23577Y18685D01*
X23602Y18682D01*
X23626Y18677D01*
X23650Y18671D01*
X23674Y18664D01*
X23697Y18656D01*
X23720Y18646D01*
X23742Y18636D01*
X23764Y18624D01*
X23785Y18611D01*
X23805Y18597D01*
X23825Y18582D01*
X23844Y18566D01*
X23862Y18549D01*
X23879Y18531D01*
X23895Y18512D01*
X23910Y18493D01*
X23924Y18472D01*
X23937Y18451D01*
X23948Y18429D01*
X23959Y18407D01*
X23969Y18384D01*
X23977Y18361D01*
X23984Y18337D01*
X23990Y18313D01*
X23994Y18289D01*
X23997Y18264D01*
X23999Y18240D01*
X24000Y18215D01*
Y17664D01*
X23999Y17639D01*
X23997Y17614D01*
X23994Y17590D01*
X23990Y17566D01*
X23984Y17541D01*
X23977Y17518D01*
X23969Y17494D01*
X23959Y17472D01*
X23948Y17449D01*
X23937Y17427D01*
X23924Y17406D01*
X23910Y17386D01*
X23895Y17366D01*
X23879Y17348D01*
X23862Y17330D01*
X23844Y17313D01*
X23825Y17297D01*
X23805Y17281D01*
X23785Y17267D01*
X23764Y17255D01*
X23742Y17243D01*
X23720Y17232D01*
X23697Y17223D01*
X23674Y17214D01*
X23650Y17207D01*
X23626Y17202D01*
X23602Y17197D01*
X23577Y17194D01*
X23552Y17192D01*
X23528Y17191D01*
X21559D01*
X21534Y17192D01*
X21510Y17194D01*
X21485Y17197D01*
X21461Y17202D01*
X21437Y17207D01*
X21413Y17214D01*
X21390Y17223D01*
X21367Y17232D01*
X21345Y17243D01*
X21323Y17255D01*
X21302Y17267D01*
X21281Y17281D01*
X21262Y17297D01*
X21243Y17313D01*
X21225Y17330D01*
X21208Y17348D01*
X21192Y17366D01*
X21177Y17386D01*
X21163Y17406D01*
X21150Y17427D01*
X21138Y17449D01*
X21127Y17472D01*
X21118Y17494D01*
X21110Y17518D01*
X21103Y17541D01*
X21097Y17566D01*
X21092Y17590D01*
X21089Y17614D01*
X21087Y17639D01*
X21087Y17664D01*
Y18215D01*
X21087Y18240D01*
X21089Y18264D01*
X21092Y18289D01*
X21097Y18313D01*
X21103Y18337D01*
X21110Y18361D01*
X21118Y18384D01*
X21127Y18407D01*
X21138Y18429D01*
X21150Y18451D01*
X21163Y18472D01*
X21177Y18493D01*
X21192Y18512D01*
X21208Y18531D01*
X21225Y18549D01*
X21243Y18566D01*
X21262Y18582D01*
X21281Y18597D01*
X21302Y18611D01*
X21323Y18624D01*
X21345Y18636D01*
X21367Y18646D01*
X21390Y18656D01*
X21413Y18664D01*
X21437Y18671D01*
X21461Y18677D01*
X21485Y18682D01*
X21510Y18685D01*
X21534Y18687D01*
X21559Y18687D01*
X23528D01*
X23552Y18687D01*
D02*
G37*
G36*
X10560D02*
X10585Y18685D01*
X10609Y18682D01*
X10634Y18677D01*
X10658Y18671D01*
X10681Y18664D01*
X10705Y18656D01*
X10728Y18646D01*
X10750Y18636D01*
X10772Y18624D01*
X10793Y18611D01*
X10813Y18597D01*
X10833Y18582D01*
X10852Y18566D01*
X10870Y18549D01*
X10887Y18531D01*
X10903Y18512D01*
X10918Y18493D01*
X10932Y18472D01*
X10945Y18451D01*
X10956Y18429D01*
X10967Y18407D01*
X10977Y18384D01*
X10985Y18361D01*
X10992Y18337D01*
X10998Y18313D01*
X11002Y18289D01*
X11005Y18264D01*
X11007Y18240D01*
X11008Y18215D01*
Y17664D01*
X11007Y17639D01*
X11005Y17614D01*
X11002Y17590D01*
X10998Y17566D01*
X10992Y17541D01*
X10985Y17518D01*
X10977Y17494D01*
X10967Y17472D01*
X10956Y17449D01*
X10945Y17427D01*
X10932Y17406D01*
X10918Y17386D01*
X10903Y17366D01*
X10887Y17348D01*
X10870Y17330D01*
X10852Y17313D01*
X10833Y17297D01*
X10813Y17281D01*
X10793Y17267D01*
X10772Y17255D01*
X10750Y17243D01*
X10728Y17232D01*
X10705Y17223D01*
X10681Y17214D01*
X10658Y17207D01*
X10634Y17202D01*
X10609Y17197D01*
X10585Y17194D01*
X10560Y17192D01*
X10535Y17191D01*
X8567D01*
X8542Y17192D01*
X8518Y17194D01*
X8493Y17197D01*
X8469Y17202D01*
X8445Y17207D01*
X8421Y17214D01*
X8398Y17223D01*
X8375Y17232D01*
X8352Y17243D01*
X8331Y17255D01*
X8310Y17267D01*
X8289Y17281D01*
X8270Y17297D01*
X8251Y17313D01*
X8233Y17330D01*
X8216Y17348D01*
X8200Y17366D01*
X8185Y17386D01*
X8171Y17406D01*
X8158Y17427D01*
X8146Y17449D01*
X8135Y17472D01*
X8126Y17494D01*
X8118Y17518D01*
X8111Y17541D01*
X8105Y17566D01*
X8100Y17590D01*
X8097Y17614D01*
X8095Y17639D01*
X8095Y17664D01*
Y18215D01*
X8095Y18240D01*
X8097Y18264D01*
X8100Y18289D01*
X8105Y18313D01*
X8111Y18337D01*
X8118Y18361D01*
X8126Y18384D01*
X8135Y18407D01*
X8146Y18429D01*
X8158Y18451D01*
X8171Y18472D01*
X8185Y18493D01*
X8200Y18512D01*
X8216Y18531D01*
X8233Y18549D01*
X8251Y18566D01*
X8270Y18582D01*
X8289Y18597D01*
X8310Y18611D01*
X8331Y18624D01*
X8352Y18636D01*
X8375Y18646D01*
X8398Y18656D01*
X8421Y18664D01*
X8445Y18671D01*
X8469Y18677D01*
X8493Y18682D01*
X8518Y18685D01*
X8542Y18687D01*
X8567Y18687D01*
X10535D01*
X10560Y18687D01*
D02*
G37*
G36*
X23552Y16718D02*
X23577Y16716D01*
X23602Y16713D01*
X23626Y16709D01*
X23650Y16703D01*
X23674Y16696D01*
X23697Y16688D01*
X23720Y16678D01*
X23742Y16667D01*
X23764Y16656D01*
X23785Y16643D01*
X23805Y16629D01*
X23825Y16614D01*
X23844Y16598D01*
X23862Y16580D01*
X23879Y16563D01*
X23895Y16544D01*
X23910Y16524D01*
X23924Y16504D01*
X23937Y16483D01*
X23948Y16461D01*
X23959Y16439D01*
X23969Y16416D01*
X23977Y16392D01*
X23984Y16369D01*
X23990Y16345D01*
X23994Y16320D01*
X23997Y16296D01*
X23999Y16271D01*
X24000Y16246D01*
Y15695D01*
X23999Y15671D01*
X23997Y15646D01*
X23994Y15621D01*
X23990Y15597D01*
X23984Y15573D01*
X23977Y15549D01*
X23969Y15526D01*
X23959Y15503D01*
X23948Y15481D01*
X23937Y15459D01*
X23924Y15438D01*
X23910Y15418D01*
X23895Y15398D01*
X23879Y15379D01*
X23862Y15361D01*
X23844Y15344D01*
X23825Y15328D01*
X23805Y15313D01*
X23785Y15299D01*
X23764Y15286D01*
X23742Y15274D01*
X23720Y15264D01*
X23697Y15254D01*
X23674Y15246D01*
X23650Y15239D01*
X23626Y15233D01*
X23602Y15229D01*
X23577Y15225D01*
X23552Y15224D01*
X23528Y15223D01*
X21559D01*
X21534Y15224D01*
X21510Y15225D01*
X21485Y15229D01*
X21461Y15233D01*
X21437Y15239D01*
X21413Y15246D01*
X21390Y15254D01*
X21367Y15264D01*
X21345Y15274D01*
X21323Y15286D01*
X21302Y15299D01*
X21281Y15313D01*
X21262Y15328D01*
X21243Y15344D01*
X21225Y15361D01*
X21208Y15379D01*
X21192Y15398D01*
X21177Y15418D01*
X21163Y15438D01*
X21150Y15459D01*
X21138Y15481D01*
X21127Y15503D01*
X21118Y15526D01*
X21110Y15549D01*
X21103Y15573D01*
X21097Y15597D01*
X21092Y15621D01*
X21089Y15646D01*
X21087Y15671D01*
X21087Y15695D01*
Y16246D01*
X21087Y16271D01*
X21089Y16296D01*
X21092Y16320D01*
X21097Y16345D01*
X21103Y16369D01*
X21110Y16392D01*
X21118Y16416D01*
X21127Y16439D01*
X21138Y16461D01*
X21150Y16483D01*
X21163Y16504D01*
X21177Y16524D01*
X21192Y16544D01*
X21208Y16563D01*
X21225Y16580D01*
X21243Y16598D01*
X21262Y16614D01*
X21281Y16629D01*
X21302Y16643D01*
X21323Y16656D01*
X21345Y16667D01*
X21367Y16678D01*
X21390Y16688D01*
X21413Y16696D01*
X21437Y16703D01*
X21461Y16709D01*
X21485Y16713D01*
X21510Y16716D01*
X21534Y16718D01*
X21559Y16719D01*
X23528D01*
X23552Y16718D01*
D02*
G37*
G36*
X10560D02*
X10585Y16716D01*
X10609Y16713D01*
X10634Y16709D01*
X10658Y16703D01*
X10681Y16696D01*
X10705Y16688D01*
X10728Y16678D01*
X10750Y16667D01*
X10772Y16656D01*
X10793Y16643D01*
X10813Y16629D01*
X10833Y16614D01*
X10852Y16598D01*
X10870Y16580D01*
X10887Y16563D01*
X10903Y16544D01*
X10918Y16524D01*
X10932Y16504D01*
X10945Y16483D01*
X10956Y16461D01*
X10967Y16439D01*
X10977Y16416D01*
X10985Y16392D01*
X10992Y16369D01*
X10998Y16345D01*
X11002Y16320D01*
X11005Y16296D01*
X11007Y16271D01*
X11008Y16246D01*
Y15695D01*
X11007Y15671D01*
X11005Y15646D01*
X11002Y15621D01*
X10998Y15597D01*
X10992Y15573D01*
X10985Y15549D01*
X10977Y15526D01*
X10967Y15503D01*
X10956Y15481D01*
X10945Y15459D01*
X10932Y15438D01*
X10918Y15418D01*
X10903Y15398D01*
X10887Y15379D01*
X10870Y15361D01*
X10852Y15344D01*
X10833Y15328D01*
X10813Y15313D01*
X10793Y15299D01*
X10772Y15286D01*
X10750Y15274D01*
X10728Y15264D01*
X10705Y15254D01*
X10681Y15246D01*
X10658Y15239D01*
X10634Y15233D01*
X10609Y15229D01*
X10585Y15225D01*
X10560Y15224D01*
X10535Y15223D01*
X8567D01*
X8542Y15224D01*
X8518Y15225D01*
X8493Y15229D01*
X8469Y15233D01*
X8445Y15239D01*
X8421Y15246D01*
X8398Y15254D01*
X8375Y15264D01*
X8352Y15274D01*
X8331Y15286D01*
X8310Y15299D01*
X8289Y15313D01*
X8270Y15328D01*
X8251Y15344D01*
X8233Y15361D01*
X8216Y15379D01*
X8200Y15398D01*
X8185Y15418D01*
X8171Y15438D01*
X8158Y15459D01*
X8146Y15481D01*
X8135Y15503D01*
X8126Y15526D01*
X8118Y15549D01*
X8111Y15573D01*
X8105Y15597D01*
X8100Y15621D01*
X8097Y15646D01*
X8095Y15671D01*
X8095Y15695D01*
Y16246D01*
X8095Y16271D01*
X8097Y16296D01*
X8100Y16320D01*
X8105Y16345D01*
X8111Y16369D01*
X8118Y16392D01*
X8126Y16416D01*
X8135Y16439D01*
X8146Y16461D01*
X8158Y16483D01*
X8171Y16504D01*
X8185Y16524D01*
X8200Y16544D01*
X8216Y16563D01*
X8233Y16580D01*
X8251Y16598D01*
X8270Y16614D01*
X8289Y16629D01*
X8310Y16643D01*
X8331Y16656D01*
X8352Y16667D01*
X8375Y16678D01*
X8398Y16688D01*
X8421Y16696D01*
X8445Y16703D01*
X8469Y16709D01*
X8493Y16713D01*
X8518Y16716D01*
X8542Y16718D01*
X8567Y16719D01*
X10535D01*
X10560Y16718D01*
D02*
G37*
G36*
X23552Y14750D02*
X23577Y14748D01*
X23602Y14745D01*
X23626Y14740D01*
X23650Y14734D01*
X23674Y14727D01*
X23697Y14719D01*
X23720Y14709D01*
X23742Y14699D01*
X23764Y14687D01*
X23785Y14674D01*
X23805Y14660D01*
X23825Y14645D01*
X23844Y14629D01*
X23862Y14612D01*
X23879Y14594D01*
X23895Y14575D01*
X23910Y14556D01*
X23924Y14535D01*
X23937Y14514D01*
X23948Y14492D01*
X23959Y14470D01*
X23969Y14447D01*
X23977Y14424D01*
X23984Y14400D01*
X23990Y14376D01*
X23994Y14352D01*
X23997Y14327D01*
X23999Y14303D01*
X24000Y14278D01*
Y13727D01*
X23999Y13702D01*
X23997Y13677D01*
X23994Y13653D01*
X23990Y13629D01*
X23984Y13604D01*
X23977Y13581D01*
X23969Y13557D01*
X23959Y13535D01*
X23948Y13512D01*
X23937Y13490D01*
X23924Y13469D01*
X23910Y13449D01*
X23895Y13429D01*
X23879Y13411D01*
X23862Y13393D01*
X23844Y13376D01*
X23825Y13360D01*
X23805Y13344D01*
X23785Y13330D01*
X23764Y13318D01*
X23742Y13306D01*
X23720Y13295D01*
X23697Y13286D01*
X23674Y13277D01*
X23650Y13270D01*
X23626Y13265D01*
X23602Y13260D01*
X23577Y13257D01*
X23552Y13255D01*
X23528Y13254D01*
X21559D01*
X21534Y13255D01*
X21510Y13257D01*
X21485Y13260D01*
X21461Y13265D01*
X21437Y13270D01*
X21413Y13277D01*
X21390Y13286D01*
X21367Y13295D01*
X21345Y13306D01*
X21323Y13318D01*
X21302Y13330D01*
X21281Y13344D01*
X21262Y13360D01*
X21243Y13376D01*
X21225Y13393D01*
X21208Y13411D01*
X21192Y13429D01*
X21177Y13449D01*
X21163Y13469D01*
X21150Y13490D01*
X21138Y13512D01*
X21127Y13535D01*
X21118Y13557D01*
X21110Y13581D01*
X21103Y13604D01*
X21097Y13629D01*
X21092Y13653D01*
X21089Y13677D01*
X21087Y13702D01*
X21087Y13727D01*
Y14278D01*
X21087Y14303D01*
X21089Y14327D01*
X21092Y14352D01*
X21097Y14376D01*
X21103Y14400D01*
X21110Y14424D01*
X21118Y14447D01*
X21127Y14470D01*
X21138Y14492D01*
X21150Y14514D01*
X21163Y14535D01*
X21177Y14556D01*
X21192Y14575D01*
X21208Y14594D01*
X21225Y14612D01*
X21243Y14629D01*
X21262Y14645D01*
X21281Y14660D01*
X21302Y14674D01*
X21323Y14687D01*
X21345Y14699D01*
X21367Y14709D01*
X21390Y14719D01*
X21413Y14727D01*
X21437Y14734D01*
X21461Y14740D01*
X21485Y14745D01*
X21510Y14748D01*
X21534Y14750D01*
X21559Y14750D01*
X23528D01*
X23552Y14750D01*
D02*
G37*
G36*
X10560D02*
X10585Y14748D01*
X10609Y14745D01*
X10634Y14740D01*
X10658Y14734D01*
X10681Y14727D01*
X10705Y14719D01*
X10728Y14709D01*
X10750Y14699D01*
X10772Y14687D01*
X10793Y14674D01*
X10813Y14660D01*
X10833Y14645D01*
X10852Y14629D01*
X10870Y14612D01*
X10887Y14594D01*
X10903Y14575D01*
X10918Y14556D01*
X10932Y14535D01*
X10945Y14514D01*
X10956Y14492D01*
X10967Y14470D01*
X10977Y14447D01*
X10985Y14424D01*
X10992Y14400D01*
X10998Y14376D01*
X11002Y14352D01*
X11005Y14327D01*
X11007Y14303D01*
X11008Y14278D01*
Y13727D01*
X11007Y13702D01*
X11005Y13677D01*
X11002Y13653D01*
X10998Y13629D01*
X10992Y13604D01*
X10985Y13581D01*
X10977Y13557D01*
X10967Y13535D01*
X10956Y13512D01*
X10945Y13490D01*
X10932Y13469D01*
X10918Y13449D01*
X10903Y13429D01*
X10887Y13411D01*
X10870Y13393D01*
X10852Y13376D01*
X10833Y13360D01*
X10813Y13344D01*
X10793Y13330D01*
X10772Y13318D01*
X10750Y13306D01*
X10728Y13295D01*
X10705Y13286D01*
X10681Y13277D01*
X10658Y13270D01*
X10634Y13265D01*
X10609Y13260D01*
X10585Y13257D01*
X10560Y13255D01*
X10535Y13254D01*
X8567D01*
X8542Y13255D01*
X8518Y13257D01*
X8493Y13260D01*
X8469Y13265D01*
X8445Y13270D01*
X8421Y13277D01*
X8398Y13286D01*
X8375Y13295D01*
X8352Y13306D01*
X8331Y13318D01*
X8310Y13330D01*
X8289Y13344D01*
X8270Y13360D01*
X8251Y13376D01*
X8233Y13393D01*
X8216Y13411D01*
X8200Y13429D01*
X8185Y13449D01*
X8171Y13469D01*
X8158Y13490D01*
X8146Y13512D01*
X8135Y13535D01*
X8126Y13557D01*
X8118Y13581D01*
X8111Y13604D01*
X8105Y13629D01*
X8100Y13653D01*
X8097Y13677D01*
X8095Y13702D01*
X8095Y13727D01*
Y14278D01*
X8095Y14303D01*
X8097Y14327D01*
X8100Y14352D01*
X8105Y14376D01*
X8111Y14400D01*
X8118Y14424D01*
X8126Y14447D01*
X8135Y14470D01*
X8146Y14492D01*
X8158Y14514D01*
X8171Y14535D01*
X8185Y14556D01*
X8200Y14575D01*
X8216Y14594D01*
X8233Y14612D01*
X8251Y14629D01*
X8270Y14645D01*
X8289Y14660D01*
X8310Y14674D01*
X8331Y14687D01*
X8352Y14699D01*
X8375Y14709D01*
X8398Y14719D01*
X8421Y14727D01*
X8445Y14734D01*
X8469Y14740D01*
X8493Y14745D01*
X8518Y14748D01*
X8542Y14750D01*
X8567Y14750D01*
X10535D01*
X10560Y14750D01*
D02*
G37*
G36*
X23552Y12781D02*
X23577Y12779D01*
X23602Y12776D01*
X23626Y12772D01*
X23650Y12766D01*
X23674Y12759D01*
X23697Y12751D01*
X23720Y12741D01*
X23742Y12730D01*
X23764Y12719D01*
X23785Y12706D01*
X23805Y12692D01*
X23825Y12677D01*
X23844Y12661D01*
X23862Y12643D01*
X23879Y12626D01*
X23895Y12607D01*
X23910Y12587D01*
X23924Y12567D01*
X23937Y12546D01*
X23948Y12524D01*
X23959Y12502D01*
X23969Y12479D01*
X23977Y12455D01*
X23984Y12432D01*
X23990Y12408D01*
X23994Y12383D01*
X23997Y12359D01*
X23999Y12334D01*
X24000Y12309D01*
Y11758D01*
X23999Y11733D01*
X23997Y11709D01*
X23994Y11684D01*
X23990Y11660D01*
X23984Y11636D01*
X23977Y11612D01*
X23969Y11589D01*
X23959Y11566D01*
X23948Y11544D01*
X23937Y11522D01*
X23924Y11501D01*
X23910Y11480D01*
X23895Y11461D01*
X23879Y11442D01*
X23862Y11424D01*
X23844Y11407D01*
X23825Y11391D01*
X23805Y11376D01*
X23785Y11362D01*
X23764Y11349D01*
X23742Y11337D01*
X23720Y11327D01*
X23697Y11317D01*
X23674Y11309D01*
X23650Y11302D01*
X23626Y11296D01*
X23602Y11292D01*
X23577Y11288D01*
X23552Y11287D01*
X23528Y11286D01*
X21559D01*
X21534Y11287D01*
X21510Y11288D01*
X21485Y11292D01*
X21461Y11296D01*
X21437Y11302D01*
X21413Y11309D01*
X21390Y11317D01*
X21367Y11327D01*
X21345Y11337D01*
X21323Y11349D01*
X21302Y11362D01*
X21281Y11376D01*
X21262Y11391D01*
X21243Y11407D01*
X21225Y11424D01*
X21208Y11442D01*
X21192Y11461D01*
X21177Y11480D01*
X21163Y11501D01*
X21150Y11522D01*
X21138Y11544D01*
X21127Y11566D01*
X21118Y11589D01*
X21110Y11612D01*
X21103Y11636D01*
X21097Y11660D01*
X21092Y11684D01*
X21089Y11709D01*
X21087Y11733D01*
X21087Y11758D01*
Y12309D01*
X21087Y12334D01*
X21089Y12359D01*
X21092Y12383D01*
X21097Y12408D01*
X21103Y12432D01*
X21110Y12455D01*
X21118Y12479D01*
X21127Y12502D01*
X21138Y12524D01*
X21150Y12546D01*
X21163Y12567D01*
X21177Y12587D01*
X21192Y12607D01*
X21208Y12626D01*
X21225Y12643D01*
X21243Y12661D01*
X21262Y12677D01*
X21281Y12692D01*
X21302Y12706D01*
X21323Y12719D01*
X21345Y12730D01*
X21367Y12741D01*
X21390Y12751D01*
X21413Y12759D01*
X21437Y12766D01*
X21461Y12772D01*
X21485Y12776D01*
X21510Y12779D01*
X21534Y12781D01*
X21559Y12782D01*
X23528D01*
X23552Y12781D01*
D02*
G37*
G36*
X10560D02*
X10585Y12779D01*
X10609Y12776D01*
X10634Y12772D01*
X10658Y12766D01*
X10681Y12759D01*
X10705Y12751D01*
X10728Y12741D01*
X10750Y12730D01*
X10772Y12719D01*
X10793Y12706D01*
X10813Y12692D01*
X10833Y12677D01*
X10852Y12661D01*
X10870Y12643D01*
X10887Y12626D01*
X10903Y12607D01*
X10918Y12587D01*
X10932Y12567D01*
X10945Y12546D01*
X10956Y12524D01*
X10967Y12502D01*
X10977Y12479D01*
X10985Y12455D01*
X10992Y12432D01*
X10998Y12408D01*
X11002Y12383D01*
X11005Y12359D01*
X11007Y12334D01*
X11008Y12309D01*
Y11758D01*
X11007Y11733D01*
X11005Y11709D01*
X11002Y11684D01*
X10998Y11660D01*
X10992Y11636D01*
X10985Y11612D01*
X10977Y11589D01*
X10967Y11566D01*
X10956Y11544D01*
X10945Y11522D01*
X10932Y11501D01*
X10918Y11480D01*
X10903Y11461D01*
X10887Y11442D01*
X10870Y11424D01*
X10852Y11407D01*
X10833Y11391D01*
X10813Y11376D01*
X10793Y11362D01*
X10772Y11349D01*
X10750Y11337D01*
X10728Y11327D01*
X10705Y11317D01*
X10681Y11309D01*
X10658Y11302D01*
X10634Y11296D01*
X10609Y11292D01*
X10585Y11288D01*
X10560Y11287D01*
X10535Y11286D01*
X8567D01*
X8542Y11287D01*
X8518Y11288D01*
X8493Y11292D01*
X8469Y11296D01*
X8445Y11302D01*
X8421Y11309D01*
X8398Y11317D01*
X8375Y11327D01*
X8352Y11337D01*
X8331Y11349D01*
X8310Y11362D01*
X8289Y11376D01*
X8270Y11391D01*
X8251Y11407D01*
X8233Y11424D01*
X8216Y11442D01*
X8200Y11461D01*
X8185Y11480D01*
X8171Y11501D01*
X8158Y11522D01*
X8146Y11544D01*
X8135Y11566D01*
X8126Y11589D01*
X8118Y11612D01*
X8111Y11636D01*
X8105Y11660D01*
X8100Y11684D01*
X8097Y11709D01*
X8095Y11733D01*
X8095Y11758D01*
Y12309D01*
X8095Y12334D01*
X8097Y12359D01*
X8100Y12383D01*
X8105Y12408D01*
X8111Y12432D01*
X8118Y12455D01*
X8126Y12479D01*
X8135Y12502D01*
X8146Y12524D01*
X8158Y12546D01*
X8171Y12567D01*
X8185Y12587D01*
X8200Y12607D01*
X8216Y12626D01*
X8233Y12643D01*
X8251Y12661D01*
X8270Y12677D01*
X8289Y12692D01*
X8310Y12706D01*
X8331Y12719D01*
X8352Y12730D01*
X8375Y12741D01*
X8398Y12751D01*
X8421Y12759D01*
X8445Y12766D01*
X8469Y12772D01*
X8493Y12776D01*
X8518Y12779D01*
X8542Y12781D01*
X8567Y12782D01*
X10535D01*
X10560Y12781D01*
D02*
G37*
G36*
X19300Y11915D02*
X19325Y11913D01*
X19350Y11910D01*
X19374Y11905D01*
X19398Y11900D01*
X19422Y11893D01*
X19445Y11884D01*
X19468Y11875D01*
X19490Y11864D01*
X19512Y11852D01*
X19533Y11840D01*
X19553Y11825D01*
X19573Y11810D01*
X19592Y11794D01*
X19610Y11777D01*
X19627Y11759D01*
X19643Y11741D01*
X19658Y11721D01*
X19672Y11701D01*
X19685Y11680D01*
X19696Y11658D01*
X19707Y11635D01*
X19717Y11613D01*
X19725Y11589D01*
X19732Y11566D01*
X19738Y11541D01*
X19742Y11517D01*
X19745Y11493D01*
X19747Y11468D01*
X19748Y11443D01*
Y9475D01*
X19747Y9450D01*
X19745Y9425D01*
X19742Y9401D01*
X19738Y9377D01*
X19732Y9352D01*
X19725Y9329D01*
X19717Y9306D01*
X19707Y9283D01*
X19696Y9260D01*
X19685Y9239D01*
X19672Y9217D01*
X19658Y9197D01*
X19643Y9178D01*
X19627Y9159D01*
X19610Y9141D01*
X19592Y9124D01*
X19573Y9108D01*
X19553Y9093D01*
X19533Y9079D01*
X19512Y9066D01*
X19490Y9054D01*
X19468Y9043D01*
X19445Y9034D01*
X19422Y9025D01*
X19398Y9018D01*
X19374Y9013D01*
X19350Y9008D01*
X19325Y9005D01*
X19300Y9003D01*
X19276Y9002D01*
X18724D01*
X18700Y9003D01*
X18675Y9005D01*
X18651Y9008D01*
X18626Y9013D01*
X18602Y9018D01*
X18578Y9025D01*
X18555Y9034D01*
X18532Y9043D01*
X18510Y9054D01*
X18488Y9066D01*
X18467Y9079D01*
X18447Y9093D01*
X18427Y9108D01*
X18408Y9124D01*
X18390Y9141D01*
X18373Y9159D01*
X18357Y9178D01*
X18342Y9197D01*
X18328Y9217D01*
X18315Y9239D01*
X18304Y9260D01*
X18293Y9283D01*
X18283Y9306D01*
X18275Y9329D01*
X18268Y9352D01*
X18262Y9377D01*
X18258Y9401D01*
X18255Y9425D01*
X18253Y9450D01*
X18252Y9475D01*
Y11443D01*
X18253Y11468D01*
X18255Y11493D01*
X18258Y11517D01*
X18262Y11541D01*
X18268Y11566D01*
X18275Y11589D01*
X18283Y11613D01*
X18293Y11635D01*
X18304Y11658D01*
X18315Y11680D01*
X18328Y11701D01*
X18342Y11721D01*
X18357Y11741D01*
X18373Y11759D01*
X18390Y11777D01*
X18408Y11794D01*
X18427Y11810D01*
X18447Y11825D01*
X18467Y11840D01*
X18488Y11852D01*
X18510Y11864D01*
X18532Y11875D01*
X18555Y11884D01*
X18578Y11893D01*
X18602Y11900D01*
X18626Y11905D01*
X18651Y11910D01*
X18675Y11913D01*
X18700Y11915D01*
X18724Y11916D01*
X19276D01*
X19300Y11915D01*
D02*
G37*
G36*
X13395D02*
X13419Y11913D01*
X13444Y11910D01*
X13468Y11905D01*
X13492Y11900D01*
X13516Y11893D01*
X13539Y11884D01*
X13562Y11875D01*
X13585Y11864D01*
X13606Y11852D01*
X13627Y11840D01*
X13648Y11825D01*
X13667Y11810D01*
X13686Y11794D01*
X13704Y11777D01*
X13721Y11759D01*
X13737Y11741D01*
X13752Y11721D01*
X13766Y11701D01*
X13779Y11680D01*
X13791Y11658D01*
X13802Y11635D01*
X13811Y11613D01*
X13819Y11589D01*
X13826Y11566D01*
X13832Y11541D01*
X13837Y11517D01*
X13840Y11493D01*
X13842Y11468D01*
X13842Y11443D01*
Y9475D01*
X13842Y9450D01*
X13840Y9425D01*
X13837Y9401D01*
X13832Y9377D01*
X13826Y9352D01*
X13819Y9329D01*
X13811Y9306D01*
X13802Y9283D01*
X13791Y9260D01*
X13779Y9239D01*
X13766Y9217D01*
X13752Y9197D01*
X13737Y9178D01*
X13721Y9159D01*
X13704Y9141D01*
X13686Y9124D01*
X13667Y9108D01*
X13648Y9093D01*
X13627Y9079D01*
X13606Y9066D01*
X13585Y9054D01*
X13562Y9043D01*
X13539Y9034D01*
X13516Y9025D01*
X13492Y9018D01*
X13468Y9013D01*
X13444Y9008D01*
X13419Y9005D01*
X13395Y9003D01*
X13370Y9002D01*
X12819D01*
X12794Y9003D01*
X12769Y9005D01*
X12745Y9008D01*
X12721Y9013D01*
X12697Y9018D01*
X12673Y9025D01*
X12650Y9034D01*
X12627Y9043D01*
X12604Y9054D01*
X12583Y9066D01*
X12562Y9079D01*
X12541Y9093D01*
X12522Y9108D01*
X12503Y9124D01*
X12485Y9141D01*
X12468Y9159D01*
X12452Y9178D01*
X12437Y9197D01*
X12423Y9217D01*
X12410Y9239D01*
X12398Y9260D01*
X12387Y9283D01*
X12378Y9306D01*
X12370Y9329D01*
X12363Y9352D01*
X12357Y9377D01*
X12352Y9401D01*
X12349Y9425D01*
X12347Y9450D01*
X12347Y9475D01*
Y11443D01*
X12347Y11468D01*
X12349Y11493D01*
X12352Y11517D01*
X12357Y11541D01*
X12363Y11566D01*
X12370Y11589D01*
X12378Y11613D01*
X12387Y11635D01*
X12398Y11658D01*
X12410Y11680D01*
X12423Y11701D01*
X12437Y11721D01*
X12452Y11741D01*
X12468Y11759D01*
X12485Y11777D01*
X12503Y11794D01*
X12522Y11810D01*
X12541Y11825D01*
X12562Y11840D01*
X12583Y11852D01*
X12604Y11864D01*
X12627Y11875D01*
X12650Y11884D01*
X12673Y11893D01*
X12697Y11900D01*
X12721Y11905D01*
X12745Y11910D01*
X12769Y11913D01*
X12794Y11915D01*
X12819Y11916D01*
X13370D01*
X13395Y11915D01*
D02*
G37*
D13*
X12400Y4000D02*
D03*
X17000D02*
D03*
X21700D02*
D03*
X26300D02*
D03*
X8000D02*
D03*
X3400D02*
D03*
D14*
X14000Y35193D02*
D03*
Y31807D02*
D03*
X8500Y35193D02*
D03*
Y31807D02*
D03*
X2140Y31386D02*
D03*
Y28000D02*
D03*
X28500Y27693D02*
D03*
Y24307D02*
D03*
X19500Y31807D02*
D03*
Y35193D02*
D03*
X25000Y31807D02*
D03*
Y35193D02*
D03*
X2140Y20500D02*
D03*
Y23886D02*
D03*
Y16386D02*
D03*
Y13000D02*
D03*
D15*
X15500Y53500D02*
D03*
D16*
X10500Y41500D02*
D03*
X20343D02*
D03*
M02*
